<svg width="393" height="300" viewBox="0 0 393 300" fill="none" xmlns="http://www.w3.org/2000/svg">
<rect width="393" height="300" rx="24" fill="#F9F9F9"/>
<circle cx="197" cy="150" r="91.5" stroke="#159A75" stroke-opacity="0.12"/>
<circle cx="197" cy="150" r="109.5" stroke="#159A75" stroke-opacity="0.09"/>
<circle cx="197" cy="150" r="127.5" stroke="#159A75" stroke-opacity="0.06"/>
<g filter="url(#filter0_df_317_581)">
<rect x="17" y="97" width="360" height="50" rx="9.6" fill="#FAFAFA" shape-rendering="crispEdges"/>
<path fill-rule="evenodd" clip-rule="evenodd" d="M38.9 121.1C38.9 117.124 42.1236 113.9 46.1 113.9C50.0765 113.9 53.3 117.124 53.3 121.1C53.3 125.077 50.0765 128.3 46.1 128.3C42.1236 128.3 38.9 125.077 38.9 121.1ZM46.1 112.1C41.1295 112.1 37.1 116.13 37.1 121.1C37.1 126.071 41.1295 130.1 46.1 130.1C48.2612 130.1 50.2444 129.338 51.7959 128.069L54.4636 130.736C54.8151 131.088 55.385 131.088 55.7364 130.736C56.0879 130.385 56.0879 129.815 55.7364 129.464L53.0687 126.796C54.3383 125.244 55.1 123.261 55.1 121.1C55.1 116.13 51.0706 112.1 46.1 112.1Z" fill="#159A75" fill-opacity="0.3"/>
<path d="M71.2795 128V115.782H75.5511C76.4023 115.782 77.1042 115.929 77.6571 116.223C78.2099 116.514 78.6216 116.905 78.892 117.399C79.1625 117.888 79.2977 118.431 79.2977 119.027C79.2977 119.552 79.2043 119.986 79.0173 120.328C78.8344 120.67 78.5918 120.94 78.2895 121.139C77.9912 121.338 77.667 121.485 77.317 121.581V121.7C77.6909 121.724 78.0667 121.855 78.4446 122.094C78.8224 122.332 79.1386 122.674 79.3932 123.12C79.6477 123.565 79.775 124.11 79.775 124.755C79.775 125.367 79.6358 125.918 79.3574 126.407C79.079 126.896 78.6395 127.284 78.0389 127.57C77.4383 127.857 76.6568 128 75.6943 128H71.2795ZM72.7591 126.687H75.6943C76.6608 126.687 77.3469 126.501 77.7525 126.127C78.1622 125.749 78.367 125.291 78.367 124.755C78.367 124.341 78.2616 123.959 78.0508 123.609C77.84 123.255 77.5398 122.973 77.15 122.762C76.7602 122.547 76.2989 122.44 75.7659 122.44H72.7591V126.687ZM72.7591 121.151H75.5034C75.9489 121.151 76.3506 121.064 76.7085 120.889C77.0704 120.714 77.3568 120.467 77.5676 120.149C77.7824 119.831 77.8898 119.457 77.8898 119.027C77.8898 118.49 77.7028 118.035 77.329 117.661C76.9551 117.283 76.3625 117.094 75.5511 117.094H72.7591V121.151ZM84.7118 128.215C84.1311 128.215 83.6041 128.105 83.1308 127.887C82.6575 127.664 82.2817 127.344 82.0033 126.926C81.7248 126.505 81.5856 125.995 81.5856 125.399C81.5856 124.874 81.6891 124.448 81.8959 124.122C82.1027 123.792 82.3791 123.534 82.7251 123.347C83.0712 123.16 83.453 123.02 83.8706 122.929C84.2922 122.834 84.7158 122.758 85.1413 122.702C85.6981 122.631 86.1496 122.577 86.4956 122.541C86.8456 122.501 87.1001 122.436 87.2592 122.344C87.4223 122.253 87.5038 122.094 87.5038 121.867V121.819C87.5038 121.231 87.3427 120.773 87.0206 120.447C86.7024 120.121 86.2192 119.958 85.5709 119.958C84.8987 119.958 84.3717 120.105 83.9899 120.399C83.6081 120.694 83.3396 121.008 83.1845 121.342L81.8481 120.865C82.0868 120.308 82.405 119.874 82.8027 119.564C83.2044 119.25 83.6419 119.031 84.1152 118.908C84.5925 118.781 85.0618 118.717 85.5231 118.717C85.8175 118.717 86.1555 118.753 86.5373 118.824C86.9231 118.892 87.295 119.033 87.653 119.248C88.0149 119.463 88.3152 119.787 88.5538 120.22C88.7925 120.654 88.9118 121.235 88.9118 121.962V128H87.5038V126.759H87.4322C87.3368 126.958 87.1777 127.171 86.955 127.397C86.7322 127.624 86.4359 127.817 86.066 127.976C85.6962 128.135 85.2447 128.215 84.7118 128.215ZM84.9266 126.95C85.4834 126.95 85.9527 126.841 86.3345 126.622C86.7203 126.403 87.0106 126.121 87.2055 125.775C87.4044 125.429 87.5038 125.065 87.5038 124.683V123.394C87.4442 123.466 87.3129 123.532 87.1101 123.591C86.9112 123.647 86.6805 123.697 86.418 123.74C86.1595 123.78 85.9069 123.816 85.6604 123.848C85.4177 123.876 85.2209 123.899 85.0697 123.919C84.7038 123.967 84.3618 124.045 84.0436 124.152C83.7294 124.255 83.4748 124.412 83.28 124.623C83.0891 124.83 82.9936 125.112 82.9936 125.47C82.9936 125.96 83.1746 126.33 83.5365 126.58C83.9024 126.827 84.3658 126.95 84.9266 126.95ZM91.4816 128V118.836H92.8896V122.822H93.8202L97.1134 118.836H98.9271L95.2282 123.251L98.9748 128H97.1611L94.1543 124.134H92.8896V128H91.4816ZM103.202 128.215C102.621 128.215 102.094 128.105 101.621 127.887C101.147 127.664 100.772 127.344 100.493 126.926C100.215 126.505 100.075 125.995 100.075 125.399C100.075 124.874 100.179 124.448 100.386 124.122C100.593 123.792 100.869 123.534 101.215 123.347C101.561 123.16 101.943 123.02 102.36 122.929C102.782 122.834 103.206 122.758 103.631 122.702C104.188 122.631 104.639 122.577 104.985 122.541C105.335 122.501 105.59 122.436 105.749 122.344C105.912 122.253 105.994 122.094 105.994 121.867V121.819C105.994 121.231 105.833 120.773 105.51 120.447C105.192 120.121 104.709 119.958 104.061 119.958C103.389 119.958 102.862 120.105 102.48 120.399C102.098 120.694 101.829 121.008 101.674 121.342L100.338 120.865C100.577 120.308 100.895 119.874 101.293 119.564C101.694 119.25 102.132 119.031 102.605 118.908C103.082 118.781 103.552 118.717 104.013 118.717C104.307 118.717 104.645 118.753 105.027 118.824C105.413 118.892 105.785 119.033 106.143 119.248C106.505 119.463 106.805 119.787 107.044 120.22C107.282 120.654 107.402 121.235 107.402 121.962V128H105.994V126.759H105.922C105.827 126.958 105.668 127.171 105.445 127.397C105.222 127.624 104.926 127.817 104.556 127.976C104.186 128.135 103.735 128.215 103.202 128.215ZM103.416 126.95C103.973 126.95 104.443 126.841 104.824 126.622C105.21 126.403 105.5 126.121 105.695 125.775C105.894 125.429 105.994 125.065 105.994 124.683V123.394C105.934 123.466 105.803 123.532 105.6 123.591C105.401 123.647 105.17 123.697 104.908 123.74C104.649 123.78 104.397 123.816 104.15 123.848C103.908 123.876 103.711 123.899 103.56 123.919C103.194 123.967 102.852 124.045 102.533 124.152C102.219 124.255 101.965 124.412 101.77 124.623C101.579 124.83 101.483 125.112 101.483 125.47C101.483 125.96 101.664 126.33 102.026 126.58C102.392 126.827 102.856 126.95 103.416 126.95ZM116.104 122.774V124.086H111.045V122.774H116.104ZM111.379 118.836V128H109.971V118.836H111.379ZM117.178 118.836V128H115.77V118.836H117.178ZM123.472 128.191C122.613 128.191 121.873 127.988 121.253 127.582C120.633 127.177 120.155 126.618 119.821 125.906C119.487 125.194 119.32 124.381 119.32 123.466C119.32 122.535 119.491 121.714 119.833 121.002C120.179 120.286 120.66 119.727 121.277 119.326C121.897 118.92 122.621 118.717 123.448 118.717C124.093 118.717 124.673 118.836 125.19 119.075C125.708 119.314 126.131 119.648 126.461 120.077C126.791 120.507 126.996 121.008 127.076 121.581H125.668C125.56 121.163 125.322 120.793 124.952 120.471C124.586 120.145 124.093 119.982 123.472 119.982C122.923 119.982 122.442 120.125 122.029 120.411C121.619 120.694 121.299 121.093 121.068 121.611C120.841 122.124 120.728 122.726 120.728 123.418C120.728 124.126 120.839 124.743 121.062 125.268C121.289 125.793 121.607 126.2 122.017 126.491C122.43 126.781 122.915 126.926 123.472 126.926C123.838 126.926 124.17 126.862 124.469 126.735C124.767 126.608 125.019 126.425 125.226 126.186C125.433 125.948 125.58 125.661 125.668 125.327H127.076C126.996 125.868 126.799 126.355 126.485 126.789C126.175 127.218 125.763 127.561 125.25 127.815C124.741 128.066 124.148 128.191 123.472 128.191ZM130.542 125.924L134.957 118.836H136.579V128H135.171V120.912L130.781 128H129.134V118.836H130.542V125.924ZM140.566 125.924L144.981 118.836H146.604V128H145.196V120.912L140.805 128H139.158V118.836H140.566V125.924ZM157.63 128.191C156.771 128.191 156.031 127.988 155.411 127.582C154.79 127.177 154.313 126.618 153.979 125.906C153.645 125.194 153.478 124.381 153.478 123.466C153.478 122.535 153.649 121.714 153.991 121.002C154.337 120.286 154.818 119.727 155.435 119.326C156.055 118.92 156.779 118.717 157.606 118.717C158.251 118.717 158.831 118.836 159.348 119.075C159.865 119.314 160.289 119.648 160.619 120.077C160.949 120.507 161.154 121.008 161.234 121.581H159.826C159.718 121.163 159.48 120.793 159.11 120.471C158.744 120.145 158.251 119.982 157.63 119.982C157.081 119.982 156.6 120.125 156.186 120.411C155.777 120.694 155.457 121.093 155.226 121.611C154.999 122.124 154.886 122.726 154.886 123.418C154.886 124.126 154.997 124.743 155.22 125.268C155.447 125.793 155.765 126.2 156.174 126.491C156.588 126.781 157.073 126.926 157.63 126.926C157.996 126.926 158.328 126.862 158.626 126.735C158.925 126.608 159.177 126.425 159.384 126.186C159.591 125.948 159.738 125.661 159.826 125.327H161.234C161.154 125.868 160.957 126.355 160.643 126.789C160.333 127.218 159.921 127.561 159.408 127.815C158.899 128.066 158.306 128.191 157.63 128.191ZM162.48 128V126.687H162.814C163.089 126.687 163.318 126.634 163.501 126.526C163.684 126.415 163.831 126.222 163.942 125.948C164.057 125.669 164.145 125.284 164.205 124.79C164.268 124.293 164.314 123.661 164.342 122.893L164.509 118.836H170.618V128H169.21V120.149H165.845L165.702 123.418C165.67 124.17 165.603 124.832 165.499 125.405C165.4 125.974 165.247 126.451 165.04 126.837C164.837 127.222 164.566 127.513 164.228 127.708C163.89 127.903 163.467 128 162.958 128H162.48ZM177.043 128.191C176.16 128.191 175.399 127.996 174.758 127.606C174.122 127.212 173.631 126.664 173.285 125.96C172.943 125.252 172.772 124.428 172.772 123.49C172.772 122.551 172.943 121.724 173.285 121.008C173.631 120.288 174.112 119.727 174.728 119.326C175.349 118.92 176.073 118.717 176.9 118.717C177.377 118.717 177.849 118.797 178.314 118.956C178.779 119.115 179.203 119.373 179.585 119.731C179.966 120.085 180.271 120.555 180.497 121.139C180.724 121.724 180.837 122.444 180.837 123.299V123.895H173.774V122.678H179.406C179.406 122.161 179.302 121.7 179.095 121.294C178.893 120.889 178.602 120.568 178.224 120.334C177.851 120.099 177.409 119.982 176.9 119.982C176.339 119.982 175.854 120.121 175.444 120.399C175.039 120.674 174.726 121.032 174.508 121.473C174.289 121.915 174.18 122.388 174.18 122.893V123.705C174.18 124.397 174.299 124.983 174.537 125.464C174.78 125.942 175.116 126.306 175.546 126.556C175.975 126.803 176.474 126.926 177.043 126.926C177.413 126.926 177.747 126.874 178.045 126.771C178.348 126.664 178.608 126.505 178.827 126.294C179.046 126.079 179.215 125.812 179.334 125.494L180.694 125.876C180.551 126.337 180.311 126.743 179.972 127.093C179.634 127.439 179.217 127.71 178.72 127.905C178.222 128.095 177.664 128.191 177.043 128.191ZM186.702 128.191C185.843 128.191 185.103 127.988 184.483 127.582C183.862 127.177 183.385 126.618 183.051 125.906C182.717 125.194 182.55 124.381 182.55 123.466C182.55 122.535 182.721 121.714 183.063 121.002C183.409 120.286 183.89 119.727 184.507 119.326C185.127 118.92 185.851 118.717 186.678 118.717C187.322 118.717 187.903 118.836 188.42 119.075C188.937 119.314 189.361 119.648 189.691 120.077C190.021 120.507 190.226 121.008 190.305 121.581H188.897C188.79 121.163 188.551 120.793 188.182 120.471C187.816 120.145 187.322 119.982 186.702 119.982C186.153 119.982 185.672 120.125 185.258 120.411C184.849 120.694 184.528 121.093 184.298 121.611C184.071 122.124 183.958 122.726 183.958 123.418C183.958 124.126 184.069 124.743 184.292 125.268C184.518 125.793 184.837 126.2 185.246 126.491C185.66 126.781 186.145 126.926 186.702 126.926C187.068 126.926 187.4 126.862 187.698 126.735C187.997 126.608 188.249 126.425 188.456 126.186C188.663 125.948 188.81 125.661 188.897 125.327H190.305C190.226 125.868 190.029 126.355 189.715 126.789C189.405 127.218 188.993 127.561 188.48 127.815C187.971 128.066 187.378 128.191 186.702 128.191ZM195.06 128.215C194.48 128.215 193.953 128.105 193.479 127.887C193.006 127.664 192.63 127.344 192.352 126.926C192.073 126.505 191.934 125.995 191.934 125.399C191.934 124.874 192.037 124.448 192.244 124.122C192.451 123.792 192.728 123.534 193.074 123.347C193.42 123.16 193.801 123.02 194.219 122.929C194.641 122.834 195.064 122.758 195.49 122.702C196.047 122.631 196.498 122.577 196.844 122.541C197.194 122.501 197.449 122.436 197.608 122.344C197.771 122.253 197.852 122.094 197.852 121.867V121.819C197.852 121.231 197.691 120.773 197.369 120.447C197.051 120.121 196.568 119.958 195.919 119.958C195.247 119.958 194.72 120.105 194.338 120.399C193.957 120.694 193.688 121.008 193.533 121.342L192.197 120.865C192.435 120.308 192.753 119.874 193.151 119.564C193.553 119.25 193.99 119.031 194.464 118.908C194.941 118.781 195.41 118.717 195.872 118.717C196.166 118.717 196.504 118.753 196.886 118.824C197.272 118.892 197.643 119.033 198.001 119.248C198.363 119.463 198.664 119.787 198.902 120.22C199.141 120.654 199.26 121.235 199.26 121.962V128H197.852V126.759H197.781C197.685 126.958 197.526 127.171 197.303 127.397C197.081 127.624 196.784 127.817 196.414 127.976C196.045 128.135 195.593 128.215 195.06 128.215ZM195.275 126.95C195.832 126.95 196.301 126.841 196.683 126.622C197.069 126.403 197.359 126.121 197.554 125.775C197.753 125.429 197.852 125.065 197.852 124.683V123.394C197.793 123.466 197.661 123.532 197.459 123.591C197.26 123.647 197.029 123.697 196.766 123.74C196.508 123.78 196.255 123.816 196.009 123.848C195.766 123.876 195.569 123.899 195.418 123.919C195.052 123.967 194.71 124.045 194.392 124.152C194.078 124.255 193.823 124.412 193.628 124.623C193.437 124.83 193.342 125.112 193.342 125.47C193.342 125.96 193.523 126.33 193.885 126.58C194.251 126.827 194.714 126.95 195.275 126.95ZM201.83 131.436V118.836H203.19V120.292H203.357C203.461 120.133 203.604 119.93 203.787 119.684C203.974 119.433 204.24 119.21 204.586 119.015C204.936 118.816 205.41 118.717 206.006 118.717C206.778 118.717 207.458 118.91 208.047 119.296C208.635 119.682 209.095 120.228 209.425 120.936C209.755 121.644 209.92 122.48 209.92 123.442C209.92 124.412 209.755 125.254 209.425 125.966C209.095 126.674 208.637 127.222 208.052 127.612C207.468 127.998 206.794 128.191 206.03 128.191C205.441 128.191 204.97 128.093 204.616 127.899C204.262 127.7 203.99 127.475 203.799 127.224C203.608 126.97 203.461 126.759 203.357 126.592H203.238V131.436H201.83ZM203.214 123.418C203.214 124.11 203.316 124.721 203.518 125.25C203.721 125.775 204.018 126.186 204.407 126.485C204.797 126.779 205.274 126.926 205.839 126.926C206.428 126.926 206.919 126.771 207.313 126.461C207.71 126.147 208.009 125.725 208.208 125.196C208.41 124.663 208.512 124.07 208.512 123.418C208.512 122.774 208.412 122.193 208.214 121.676C208.019 121.155 207.722 120.743 207.325 120.441C206.931 120.135 206.436 119.982 205.839 119.982C205.266 119.982 204.785 120.127 204.395 120.417C204.006 120.704 203.711 121.105 203.512 121.622C203.314 122.136 203.214 122.734 203.214 123.418ZM217.58 128V120.125H215.146C214.597 120.125 214.166 120.252 213.851 120.507C213.537 120.761 213.38 121.111 213.38 121.557C213.38 121.994 213.521 122.338 213.804 122.589C214.09 122.839 214.482 122.965 214.979 122.965H217.938V124.277H214.979C214.358 124.277 213.824 124.168 213.374 123.949C212.925 123.73 212.579 123.418 212.336 123.012C212.093 122.603 211.972 122.118 211.972 121.557C211.972 120.992 212.099 120.507 212.354 120.101C212.608 119.695 212.972 119.383 213.446 119.164C213.923 118.946 214.49 118.836 215.146 118.836H218.916V128H217.58ZM211.471 128L214.072 123.442H215.599L212.998 128H211.471ZM226.226 128V118.836H229.973C230.959 118.836 231.743 119.059 232.323 119.505C232.904 119.95 233.194 120.539 233.194 121.27C233.194 121.827 233.029 122.259 232.699 122.565C232.369 122.867 231.945 123.072 231.428 123.18C231.766 123.227 232.095 123.347 232.413 123.537C232.735 123.728 233.001 123.991 233.212 124.325C233.423 124.655 233.528 125.061 233.528 125.542C233.528 126.011 233.409 126.431 233.17 126.801C232.932 127.171 232.59 127.463 232.144 127.678C231.699 127.893 231.166 128 230.545 128H226.226ZM227.563 126.711H230.545C231.031 126.711 231.411 126.596 231.685 126.365C231.959 126.135 232.097 125.82 232.097 125.423C232.097 124.949 231.959 124.578 231.685 124.307C231.411 124.033 231.031 123.895 230.545 123.895H227.563V126.711ZM227.563 122.678H229.973C230.351 122.678 230.675 122.627 230.945 122.523C231.216 122.416 231.422 122.265 231.566 122.07C231.713 121.871 231.786 121.636 231.786 121.366C231.786 120.98 231.625 120.678 231.303 120.459C230.981 120.236 230.538 120.125 229.973 120.125H227.563V122.678ZM240.576 115.782H242.342L246.494 125.924H246.637L250.789 115.782H252.555V128H251.171V118.717H251.052L247.234 128H245.897L242.079 118.717H241.96V128H240.576V115.782ZM259.054 128.191C258.226 128.191 257.5 127.994 256.876 127.6C256.256 127.207 255.77 126.656 255.42 125.948C255.074 125.24 254.901 124.412 254.901 123.466C254.901 122.511 255.074 121.678 255.42 120.966C255.77 120.254 256.256 119.701 256.876 119.308C257.5 118.914 258.226 118.717 259.054 118.717C259.881 118.717 260.605 118.914 261.225 119.308C261.85 119.701 262.335 120.254 262.681 120.966C263.031 121.678 263.206 122.511 263.206 123.466C263.206 124.412 263.031 125.24 262.681 125.948C262.335 126.656 261.85 127.207 261.225 127.6C260.605 127.994 259.881 128.191 259.054 128.191ZM259.054 126.926C259.682 126.926 260.199 126.765 260.605 126.443C261.01 126.121 261.311 125.697 261.506 125.172C261.7 124.647 261.798 124.078 261.798 123.466C261.798 122.853 261.7 122.283 261.506 121.754C261.311 121.225 261.01 120.797 260.605 120.471C260.199 120.145 259.682 119.982 259.054 119.982C258.425 119.982 257.908 120.145 257.502 120.471C257.097 120.797 256.796 121.225 256.602 121.754C256.407 122.283 256.309 122.853 256.309 123.466C256.309 124.078 256.407 124.647 256.602 125.172C256.796 125.697 257.097 126.121 257.502 126.443C257.908 126.765 258.425 126.926 259.054 126.926ZM269.078 128.191C268.219 128.191 267.479 127.988 266.858 127.582C266.238 127.177 265.761 126.618 265.427 125.906C265.093 125.194 264.925 124.381 264.925 123.466C264.925 122.535 265.097 121.714 265.439 121.002C265.785 120.286 266.266 119.727 266.882 119.326C267.503 118.92 268.227 118.717 269.054 118.717C269.698 118.717 270.279 118.836 270.796 119.075C271.313 119.314 271.737 119.648 272.067 120.077C272.397 120.507 272.602 121.008 272.681 121.581H271.273C271.166 121.163 270.927 120.793 270.557 120.471C270.191 120.145 269.698 119.982 269.078 119.982C268.529 119.982 268.048 120.125 267.634 120.411C267.224 120.694 266.904 121.093 266.674 121.611C266.447 122.124 266.333 122.726 266.333 123.418C266.333 124.126 266.445 124.743 266.668 125.268C266.894 125.793 267.212 126.2 267.622 126.491C268.036 126.781 268.521 126.926 269.078 126.926C269.444 126.926 269.776 126.862 270.074 126.735C270.372 126.608 270.625 126.425 270.832 126.186C271.039 125.948 271.186 125.661 271.273 125.327H272.681C272.602 125.868 272.405 126.355 272.091 126.789C271.78 127.218 271.369 127.561 270.856 127.815C270.347 128.066 269.754 128.191 269.078 128.191ZM274.739 128V118.836H276.147V122.822H277.078L280.371 118.836H282.185L278.486 123.251L282.233 128H280.419L277.412 124.134H276.147V128H274.739ZM283.763 128V118.836H287.509C288.496 118.836 289.279 119.059 289.86 119.505C290.441 119.95 290.731 120.539 290.731 121.27C290.731 121.827 290.566 122.259 290.236 122.565C289.906 122.867 289.482 123.072 288.965 123.18C289.303 123.227 289.631 123.347 289.95 123.537C290.272 123.728 290.538 123.991 290.749 124.325C290.96 124.655 291.065 125.061 291.065 125.542C291.065 126.011 290.946 126.431 290.707 126.801C290.469 127.171 290.127 127.463 289.681 127.678C289.236 127.893 288.703 128 288.082 128H283.763ZM285.099 126.711H288.082C288.567 126.711 288.947 126.596 289.222 126.365C289.496 126.135 289.633 125.82 289.633 125.423C289.633 124.949 289.496 124.578 289.222 124.307C288.947 124.033 288.567 123.895 288.082 123.895H285.099V126.711ZM285.099 122.678H287.509C287.887 122.678 288.211 122.627 288.482 122.523C288.752 122.416 288.959 122.265 289.102 122.07C289.25 121.871 289.323 121.636 289.323 121.366C289.323 120.98 289.162 120.678 288.84 120.459C288.518 120.236 288.074 120.125 287.509 120.125H285.099V122.678ZM297.039 128.191C296.156 128.191 295.394 127.996 294.754 127.606C294.117 127.212 293.626 126.664 293.28 125.96C292.938 125.252 292.767 124.428 292.767 123.49C292.767 122.551 292.938 121.724 293.28 121.008C293.626 120.288 294.107 119.727 294.724 119.326C295.344 118.92 296.068 118.717 296.895 118.717C297.373 118.717 297.844 118.797 298.309 118.956C298.775 119.115 299.198 119.373 299.58 119.731C299.962 120.085 300.266 120.555 300.493 121.139C300.719 121.724 300.833 122.444 300.833 123.299V123.895H293.769V122.678H299.401C299.401 122.161 299.298 121.7 299.091 121.294C298.888 120.889 298.598 120.568 298.22 120.334C297.846 120.099 297.404 119.982 296.895 119.982C296.335 119.982 295.849 120.121 295.44 120.399C295.034 120.674 294.722 121.032 294.503 121.473C294.284 121.915 294.175 122.388 294.175 122.893V123.705C294.175 124.397 294.294 124.983 294.533 125.464C294.775 125.942 295.112 126.306 295.541 126.556C295.971 126.803 296.47 126.926 297.039 126.926C297.408 126.926 297.742 126.874 298.041 126.771C298.343 126.664 298.604 126.505 298.822 126.294C299.041 126.079 299.21 125.812 299.329 125.494L300.69 125.876C300.546 126.337 300.306 126.743 299.968 127.093C299.63 127.439 299.212 127.71 298.715 127.905C298.218 128.095 297.659 128.191 297.039 128.191Z" fill="#159A75" fill-opacity="0.3"/>
</g>
<g filter="url(#filter1_df_317_581)">
<rect x="32" y="125" width="330" height="50" rx="9.6" fill="#FAFAFA" shape-rendering="crispEdges"/>
<path fill-rule="evenodd" clip-rule="evenodd" d="M53.9 149.1C53.9 145.124 57.1236 141.9 61.1 141.9C65.0765 141.9 68.3 145.124 68.3 149.1C68.3 153.077 65.0765 156.3 61.1 156.3C57.1236 156.3 53.9 153.077 53.9 149.1ZM61.1 140.1C56.1295 140.1 52.1 144.13 52.1 149.1C52.1 154.071 56.1295 158.1 61.1 158.1C63.2612 158.1 65.2444 157.338 66.7959 156.069L69.4636 158.736C69.8151 159.088 70.385 159.088 70.7364 158.736C71.0879 158.385 71.0879 157.815 70.7364 157.464L68.0687 154.796C69.3383 153.244 70.1 151.261 70.1 149.1C70.1 144.13 66.0706 140.1 61.1 140.1Z" fill="#159A75" fill-opacity="0.6"/>
<path d="M93.4625 156L89.2625 150.392H87.7591V156H86.2795V143.782H87.7591V149.08H88.4034L93.2954 143.782H95.0614L90.1216 149.151L95.2284 156H93.4625ZM97.1837 159.436C96.9451 159.436 96.7323 159.416 96.5454 159.377C96.3584 159.341 96.2292 159.305 96.1576 159.269L96.5155 158.028C96.8576 158.116 97.1599 158.148 97.4224 158.124C97.6849 158.1 97.9175 157.983 98.1204 157.772C98.3272 157.565 98.5161 157.229 98.6871 156.764L98.9496 156.048L95.561 146.836H97.0883L99.6178 154.139H99.7133L102.243 146.836H103.77L99.8803 157.336C99.7053 157.81 99.4886 158.201 99.23 158.512C98.9715 158.826 98.6712 159.059 98.3292 159.21C97.9911 159.361 97.6093 159.436 97.1837 159.436ZM105.628 156V146.836H112.835V156H111.427V148.149H107.036V156H105.628ZM116.815 153.924L121.229 146.836H122.852V156H121.444V148.912L117.053 156H115.407V146.836H116.815V153.924ZM124.184 148.149V146.836H131.629V148.149H128.623V156H127.215V148.149H124.184ZM134.9 150.153H137.525C138.599 150.153 139.42 150.426 139.989 150.971C140.558 151.516 140.842 152.206 140.842 153.041C140.842 153.59 140.715 154.089 140.46 154.538C140.206 154.984 139.832 155.34 139.339 155.606C138.846 155.869 138.241 156 137.525 156H133.683V146.836H135.091V154.687H137.525C138.082 154.687 138.539 154.54 138.897 154.246C139.255 153.952 139.434 153.574 139.434 153.112C139.434 152.627 139.255 152.232 138.897 151.925C138.539 151.619 138.082 151.466 137.525 151.466H134.9V150.153ZM147.186 148.149V146.836H154.631V148.149H151.624V156H150.216V148.149H147.186ZM160.051 156.191C159.168 156.191 158.406 155.996 157.766 155.606C157.13 155.212 156.638 154.664 156.292 153.96C155.95 153.252 155.779 152.428 155.779 151.49C155.779 150.551 155.95 149.724 156.292 149.008C156.638 148.288 157.12 147.727 157.736 147.326C158.357 146.92 159.081 146.717 159.908 146.717C160.385 146.717 160.856 146.797 161.322 146.956C161.787 147.115 162.211 147.373 162.592 147.731C162.974 148.085 163.279 148.555 163.505 149.139C163.732 149.724 163.845 150.444 163.845 151.299V151.895H156.782V150.678H162.413C162.413 150.161 162.31 149.7 162.103 149.294C161.9 148.889 161.61 148.568 161.232 148.334C160.858 148.099 160.417 147.982 159.908 147.982C159.347 147.982 158.862 148.121 158.452 148.399C158.046 148.674 157.734 149.032 157.515 149.473C157.297 149.915 157.187 150.388 157.187 150.893V151.705C157.187 152.397 157.307 152.983 157.545 153.464C157.788 153.942 158.124 154.306 158.554 154.556C158.983 154.803 159.482 154.926 160.051 154.926C160.421 154.926 160.755 154.874 161.053 154.771C161.356 154.664 161.616 154.505 161.835 154.294C162.054 154.079 162.223 153.812 162.342 153.494L163.702 153.876C163.559 154.337 163.318 154.743 162.98 155.093C162.642 155.439 162.225 155.71 161.727 155.905C161.23 156.095 160.671 156.191 160.051 156.191ZM165.176 156V154.687H165.51C165.784 154.687 166.013 154.634 166.196 154.526C166.379 154.415 166.526 154.222 166.637 153.948C166.753 153.669 166.84 153.284 166.9 152.79C166.963 152.293 167.009 151.661 167.037 150.893L167.204 146.836H173.313V156H171.905V148.149H168.54L168.397 151.418C168.365 152.17 168.298 152.832 168.194 153.405C168.095 153.974 167.942 154.451 167.735 154.837C167.532 155.222 167.262 155.513 166.924 155.708C166.586 155.903 166.162 156 165.653 156H165.176ZM179.738 156.191C178.856 156.191 178.094 155.996 177.454 155.606C176.817 155.212 176.326 154.664 175.98 153.96C175.638 153.252 175.467 152.428 175.467 151.49C175.467 150.551 175.638 149.724 175.98 149.008C176.326 148.288 176.807 147.727 177.424 147.326C178.044 146.92 178.768 146.717 179.595 146.717C180.073 146.717 180.544 146.797 181.009 146.956C181.475 147.115 181.898 147.373 182.28 147.731C182.662 148.085 182.966 148.555 183.193 149.139C183.419 149.724 183.533 150.444 183.533 151.299V151.895H176.469V150.678H182.101C182.101 150.161 181.998 149.7 181.791 149.294C181.588 148.889 181.298 148.568 180.92 148.334C180.546 148.099 180.104 147.982 179.595 147.982C179.035 147.982 178.549 148.121 178.14 148.399C177.734 148.674 177.422 149.032 177.203 149.473C176.984 149.915 176.875 150.388 176.875 150.893V151.705C176.875 152.397 176.994 152.983 177.233 153.464C177.475 153.942 177.811 154.306 178.241 154.556C178.671 154.803 179.17 154.926 179.738 154.926C180.108 154.926 180.442 154.874 180.741 154.771C181.043 154.664 181.304 154.505 181.522 154.294C181.741 154.079 181.91 153.812 182.029 153.494L183.39 153.876C183.246 154.337 183.006 154.743 182.668 155.093C182.33 155.439 181.912 155.71 181.415 155.905C180.918 156.095 180.359 156.191 179.738 156.191ZM189.397 159.126V143.782H190.805V159.126H189.397ZM189.397 156.191C188.777 156.191 188.212 156.08 187.703 155.857C187.194 155.63 186.756 155.31 186.39 154.896C186.025 154.479 185.742 153.98 185.543 153.399C185.344 152.818 185.245 152.174 185.245 151.466C185.245 150.75 185.344 150.102 185.543 149.521C185.742 148.936 186.025 148.435 186.39 148.018C186.756 147.6 187.194 147.28 187.703 147.057C188.212 146.83 188.777 146.717 189.397 146.717H189.827V156.191H189.397ZM189.397 154.926H189.636V147.982H189.397C188.928 147.982 188.52 148.077 188.174 148.268C187.828 148.455 187.542 148.712 187.315 149.038C187.092 149.36 186.925 149.73 186.814 150.147C186.707 150.565 186.653 151.005 186.653 151.466C186.653 152.078 186.75 152.647 186.945 153.172C187.14 153.697 187.44 154.121 187.846 154.443C188.252 154.765 188.769 154.926 189.397 154.926ZM190.805 156.191H190.376V146.717H190.805C191.426 146.717 191.99 146.83 192.5 147.057C193.009 147.28 193.446 147.6 193.812 148.018C194.178 148.435 194.46 148.936 194.659 149.521C194.858 150.102 194.958 150.75 194.958 151.466C194.958 152.174 194.858 152.818 194.659 153.399C194.46 153.98 194.178 154.479 193.812 154.896C193.446 155.31 193.009 155.63 192.5 155.857C191.99 156.08 191.426 156.191 190.805 156.191ZM190.805 154.926C191.279 154.926 191.686 154.835 192.028 154.652C192.374 154.465 192.659 154.21 192.881 153.888C193.108 153.562 193.275 153.192 193.383 152.778C193.494 152.361 193.55 151.923 193.55 151.466C193.55 150.853 193.452 150.283 193.257 149.754C193.062 149.225 192.762 148.797 192.356 148.471C191.951 148.145 191.434 147.982 190.805 147.982H190.567V154.926H190.805ZM200.832 156.191C200.005 156.191 199.279 155.994 198.655 155.6C198.034 155.207 197.549 154.656 197.199 153.948C196.853 153.24 196.68 152.412 196.68 151.466C196.68 150.511 196.853 149.678 197.199 148.966C197.549 148.254 198.034 147.701 198.655 147.308C199.279 146.914 200.005 146.717 200.832 146.717C201.66 146.717 202.384 146.914 203.004 147.308C203.628 147.701 204.114 148.254 204.46 148.966C204.81 149.678 204.985 150.511 204.985 151.466C204.985 152.412 204.81 153.24 204.46 153.948C204.114 154.656 203.628 155.207 203.004 155.6C202.384 155.994 201.66 156.191 200.832 156.191ZM200.832 154.926C201.461 154.926 201.978 154.765 202.384 154.443C202.789 154.121 203.09 153.697 203.284 153.172C203.479 152.647 203.577 152.078 203.577 151.466C203.577 150.853 203.479 150.283 203.284 149.754C203.09 149.225 202.789 148.797 202.384 148.471C201.978 148.145 201.461 147.982 200.832 147.982C200.204 147.982 199.687 148.145 199.281 148.471C198.876 148.797 198.575 149.225 198.38 149.754C198.186 150.283 198.088 150.853 198.088 151.466C198.088 152.078 198.186 152.647 198.38 153.172C198.575 153.697 198.876 154.121 199.281 154.443C199.687 154.765 200.204 154.926 200.832 154.926ZM213.267 150.774V152.086H208.208V150.774H213.267ZM208.542 146.836V156H207.134V146.836H208.542ZM214.341 146.836V156H212.933V146.836H214.341Z" fill="#159A75" fill-opacity="0.6"/>
</g>
<g filter="url(#filter2_d_317_581)">
<rect x="47" y="154" width="300" height="50" rx="9.6" fill="white" shape-rendering="crispEdges"/>
<path fill-rule="evenodd" clip-rule="evenodd" d="M68.9 178.1C68.9 174.124 72.1236 170.9 76.1 170.9C80.0765 170.9 83.3 174.124 83.3 178.1C83.3 182.077 80.0765 185.3 76.1 185.3C72.1236 185.3 68.9 182.077 68.9 178.1ZM76.1 169.1C71.1295 169.1 67.1 173.13 67.1 178.1C67.1 183.071 71.1295 187.1 76.1 187.1C78.2612 187.1 80.2444 186.338 81.7959 185.069L84.4636 187.736C84.8151 188.088 85.385 188.088 85.7364 187.736C86.0879 187.385 86.0879 186.815 85.7364 186.464L83.0687 183.796C84.3383 182.244 85.1 180.261 85.1 178.1C85.1 173.13 81.0706 169.1 76.1 169.1Z" fill="#159A75"/>
<path d="M110.419 172.782V185H108.94V174.094H102.783V185H101.303V172.782H110.419ZM116.936 185.191C116.108 185.191 115.382 184.994 114.758 184.6C114.138 184.207 113.652 183.656 113.302 182.948C112.956 182.24 112.783 181.412 112.783 180.466C112.783 179.511 112.956 178.678 113.302 177.966C113.652 177.254 114.138 176.701 114.758 176.308C115.382 175.914 116.108 175.717 116.936 175.717C117.763 175.717 118.487 175.914 119.107 176.308C119.732 176.701 120.217 177.254 120.563 177.966C120.913 178.678 121.088 179.511 121.088 180.466C121.088 181.412 120.913 182.24 120.563 182.948C120.217 183.656 119.732 184.207 119.107 184.6C118.487 184.994 117.763 185.191 116.936 185.191ZM116.936 183.926C117.564 183.926 118.081 183.765 118.487 183.443C118.892 183.121 119.193 182.697 119.388 182.172C119.582 181.647 119.68 181.078 119.68 180.466C119.68 179.853 119.582 179.283 119.388 178.754C119.193 178.225 118.892 177.797 118.487 177.471C118.081 177.145 117.564 176.982 116.936 176.982C116.307 176.982 115.79 177.145 115.384 177.471C114.979 177.797 114.678 178.225 114.484 178.754C114.289 179.283 114.191 179.853 114.191 180.466C114.191 181.078 114.289 181.647 114.484 182.172C114.678 182.697 114.979 183.121 115.384 183.443C115.79 183.765 116.307 183.926 116.936 183.926ZM124.645 182.924L129.06 175.836H130.683V185H129.275V177.912L124.884 185H123.237V175.836H124.645V182.924ZM136.984 185.191C136.125 185.191 135.385 184.988 134.765 184.582C134.144 184.177 133.667 183.618 133.333 182.906C132.999 182.194 132.832 181.381 132.832 180.466C132.832 179.535 133.003 178.714 133.345 178.002C133.691 177.286 134.172 176.727 134.789 176.326C135.409 175.92 136.133 175.717 136.96 175.717C137.604 175.717 138.185 175.836 138.702 176.075C139.219 176.314 139.643 176.648 139.973 177.077C140.303 177.507 140.508 178.008 140.587 178.581H139.179C139.072 178.163 138.833 177.793 138.464 177.471C138.098 177.145 137.604 176.982 136.984 176.982C136.435 176.982 135.954 177.125 135.54 177.411C135.131 177.694 134.81 178.093 134.58 178.611C134.353 179.124 134.24 179.726 134.24 180.418C134.24 181.126 134.351 181.743 134.574 182.268C134.8 182.793 135.119 183.2 135.528 183.491C135.942 183.781 136.427 183.926 136.984 183.926C137.35 183.926 137.682 183.862 137.98 183.735C138.279 183.608 138.531 183.425 138.738 183.186C138.945 182.948 139.092 182.661 139.179 182.327H140.587C140.508 182.868 140.311 183.355 139.997 183.789C139.687 184.218 139.275 184.561 138.762 184.815C138.253 185.066 137.66 185.191 136.984 185.191ZM142.646 185V175.836H144.054V179.822H144.984L148.277 175.836H150.091L146.392 180.251L150.139 185H148.325L145.318 181.134H144.054V185H142.646Z" fill="#159A75"/>
</g>
<defs>
<filter id="filter0_df_317_581" x="9" y="93" width="376" height="66" filterUnits="userSpaceOnUse" color-interpolation-filters="sRGB">
<feFlood flood-opacity="0" result="BackgroundImageFix"/>
<feColorMatrix in="SourceAlpha" type="matrix" values="0 0 0 0 0 0 0 0 0 0 0 0 0 0 0 0 0 0 127 0" result="hardAlpha"/>
<feOffset dy="4"/>
<feGaussianBlur stdDeviation="4"/>
<feComposite in2="hardAlpha" operator="out"/>
<feColorMatrix type="matrix" values="0 0 0 0 0 0 0 0 0 0 0 0 0 0 0 0 0 0 0.02 0"/>
<feBlend mode="normal" in2="BackgroundImageFix" result="effect1_dropShadow_317_581"/>
<feBlend mode="normal" in="SourceGraphic" in2="effect1_dropShadow_317_581" result="shape"/>
<feGaussianBlur stdDeviation="1" result="effect2_foregroundBlur_317_581"/>
</filter>
<filter id="filter1_df_317_581" x="24" y="121" width="346" height="66" filterUnits="userSpaceOnUse" color-interpolation-filters="sRGB">
<feFlood flood-opacity="0" result="BackgroundImageFix"/>
<feColorMatrix in="SourceAlpha" type="matrix" values="0 0 0 0 0 0 0 0 0 0 0 0 0 0 0 0 0 0 127 0" result="hardAlpha"/>
<feOffset dy="4"/>
<feGaussianBlur stdDeviation="4"/>
<feComposite in2="hardAlpha" operator="out"/>
<feColorMatrix type="matrix" values="0 0 0 0 0 0 0 0 0 0 0 0 0 0 0 0 0 0 0.05 0"/>
<feBlend mode="normal" in2="BackgroundImageFix" result="effect1_dropShadow_317_581"/>
<feBlend mode="normal" in="SourceGraphic" in2="effect1_dropShadow_317_581" result="shape"/>
<feGaussianBlur stdDeviation="0.75" result="effect2_foregroundBlur_317_581"/>
</filter>
<filter id="filter2_d_317_581" x="39" y="150" width="316" height="66" filterUnits="userSpaceOnUse" color-interpolation-filters="sRGB">
<feFlood flood-opacity="0" result="BackgroundImageFix"/>
<feColorMatrix in="SourceAlpha" type="matrix" values="0 0 0 0 0 0 0 0 0 0 0 0 0 0 0 0 0 0 127 0" result="hardAlpha"/>
<feOffset dy="4"/>
<feGaussianBlur stdDeviation="4"/>
<feComposite in2="hardAlpha" operator="out"/>
<feColorMatrix type="matrix" values="0 0 0 0 0 0 0 0 0 0 0 0 0 0 0 0 0 0 0.08 0"/>
<feBlend mode="normal" in2="BackgroundImageFix" result="effect1_dropShadow_317_581"/>
<feBlend mode="normal" in="SourceGraphic" in2="effect1_dropShadow_317_581" result="shape"/>
</filter>
</defs>
</svg>
