<svg width="232" height="105" viewBox="0 0 232 105" fill="none" xmlns="http://www.w3.org/2000/svg">
<rect y="22" width="220" height="58" rx="14" fill="#DFECEA"/>
<path d="M87.7045 58L83.3068 52.1321H81.9134V58H79.9382V44.9091H81.9134V50.4382H82.5589L87.5064 44.9091H89.9162L84.6811 50.7706L90.1143 58H87.7045ZM92.2781 61.6818C91.9925 61.6818 91.7326 61.6584 91.4982 61.6115C91.2638 61.5689 91.0891 61.522 90.9741 61.4709L91.4343 59.9048C91.7837 59.9986 92.0948 60.0391 92.3675 60.0263C92.6403 60.0135 92.881 59.9112 93.0898 59.7195C93.3029 59.5277 93.4904 59.2145 93.6523 58.7798L93.8888 58.1278L90.2965 48.1818H92.342L94.8285 55.8011H94.9308L97.4173 48.1818H99.4691L95.4229 59.3104C95.2354 59.8217 94.9968 60.2543 94.707 60.608C94.4173 60.9659 94.0721 61.2344 93.6715 61.4134C93.271 61.5923 92.8065 61.6818 92.2781 61.6818ZM101.265 58V48.1818H109.275V58H107.402V49.831H103.125V58H101.265ZM113.703 55.3217L118.03 48.1818H120.088V58H118.215V50.8537L113.907 58H111.83V48.1818H113.703V55.3217ZM121.44 49.831V48.1818H129.724V49.831H126.522V58H124.655V49.831H121.44ZM133.184 51.5568H136.035C137.237 51.5568 138.161 51.8551 138.809 52.4517C139.457 53.0483 139.781 53.8175 139.781 54.7592C139.781 55.3729 139.636 55.9247 139.346 56.4148C139.056 56.9048 138.632 57.2926 138.074 57.5781C137.516 57.8594 136.836 58 136.035 58H131.746V48.1818H133.619V56.3509H136.035C136.585 56.3509 137.036 56.2081 137.39 55.9226C137.744 55.6328 137.92 55.2642 137.92 54.8168C137.92 54.3437 137.744 53.9581 137.39 53.6598C137.036 53.3572 136.585 53.206 136.035 53.206H133.184V51.5568Z" fill="#13212F"/>
<rect x="192" y="10" width="40" height="30" rx="15" fill="#EA333A"/>
<path d="M205.133 29.8011V21.1591H206.852V29.8011H205.133ZM201.675 26.3366V24.6236H210.317V26.3366H201.675ZM212.973 29.4432V27.8452L218.63 18.9091H219.889V21.2614H219.09L215.044 27.6662V27.7685H222.797V29.4432H212.973ZM219.179 32V28.9574L219.192 28.2287V18.9091H221.065V32H219.179Z" fill="white"/>
<path d="M22.4197 2.21126C22.5763 1.61434 23.4237 1.61434 23.5803 2.21126L24.6353 6.23082C25.5515 9.72198 28.278 12.4485 31.7692 13.3647L35.7887 14.4197C36.3857 14.5763 36.3857 15.4237 35.7887 15.5803L31.7692 16.6353C28.278 17.5515 25.5515 20.278 24.6353 23.7692L23.5803 27.7887C23.4237 28.3857 22.5763 28.3857 22.4197 27.7887L21.3647 23.7692C20.4485 20.278 17.722 17.5515 14.2308 16.6353L10.2113 15.5803C9.61434 15.4237 9.61434 14.5763 10.2113 14.4197L14.2308 13.3647C17.722 12.4485 20.4485 9.72198 21.3647 6.23082L22.4197 2.21126Z" fill="#159A75"/>
<path d="M182.92 70.2113C183.076 69.6143 183.924 69.6143 184.08 70.2113L185.863 77.0032C186.779 80.4944 189.506 83.2209 192.997 84.1371L199.789 85.9197C200.386 86.0763 200.386 86.9237 199.789 87.0803L192.997 88.8629C189.506 89.7791 186.779 92.5056 185.863 95.9968L184.08 102.789C183.924 103.386 183.076 103.386 182.92 102.789L181.137 95.9968C180.221 92.5056 177.494 89.7791 174.003 88.8629L167.211 87.0803C166.614 86.9237 166.614 86.0763 167.211 85.9197L174.003 84.1371C177.494 83.2209 180.221 80.4944 181.137 77.0032L182.92 70.2113Z" fill="#159A75"/>
</svg>
