<svg width="196" height="145" viewBox="0 0 196 145" fill="none" xmlns="http://www.w3.org/2000/svg">
<g filter="url(#filter0_d_217_86)">
<rect x="6" y="6" width="176" height="125" rx="6" fill="white" shape-rendering="crispEdges"/>
<path d="M47.5124 23V17.9091H49.4612C49.8291 17.9091 50.1349 17.9671 50.3785 18.0831C50.6238 18.1974 50.8069 18.354 50.9279 18.5529C51.0505 18.7518 51.1118 18.9772 51.1118 19.229C51.1118 19.4362 51.072 19.6135 50.9925 19.761C50.913 19.9068 50.8061 20.0253 50.6718 20.1165C50.5376 20.2076 50.3876 20.2731 50.2219 20.3129V20.3626C50.4025 20.3725 50.5757 20.428 50.7414 20.5291C50.9088 20.6286 51.0455 20.7694 51.1516 20.9517C51.2576 21.134 51.3107 21.3544 51.3107 21.6129C51.3107 21.8764 51.2469 22.1134 51.1193 22.3239C50.9917 22.5327 50.7994 22.6976 50.5426 22.8185C50.2857 22.9395 49.9626 23 49.5731 23H47.5124ZM48.4346 22.2294H49.4264C49.7612 22.2294 50.0023 22.1656 50.1498 22.038C50.299 21.9087 50.3735 21.743 50.3735 21.5408C50.3735 21.39 50.3362 21.2541 50.2617 21.1332C50.1871 21.0105 50.081 20.9144 49.9435 20.8448C49.8059 20.7736 49.6419 20.7379 49.4513 20.7379H48.4346V22.2294ZM48.4346 20.0742H49.3469C49.506 20.0742 49.6493 20.0452 49.7769 19.9872C49.9045 19.9276 50.0048 19.8439 50.0777 19.7362C50.1523 19.6268 50.1896 19.4975 50.1896 19.3484C50.1896 19.1512 50.12 18.9888 49.9808 18.8612C49.8432 18.7335 49.6386 18.6697 49.3668 18.6697H48.4346V20.0742ZM53.7387 23.0746C53.3658 23.0746 53.0427 22.9925 52.7692 22.8285C52.4958 22.6644 52.2837 22.4349 52.1329 22.1399C51.9837 21.8449 51.9091 21.5002 51.9091 21.1058C51.9091 20.7114 51.9837 20.3659 52.1329 20.0692C52.2837 19.7726 52.4958 19.5423 52.7692 19.3782C53.0427 19.2141 53.3658 19.1321 53.7387 19.1321C54.1116 19.1321 54.4347 19.2141 54.7081 19.3782C54.9816 19.5423 55.1929 19.7726 55.342 20.0692C55.4928 20.3659 55.5682 20.7114 55.5682 21.1058C55.5682 21.5002 55.4928 21.8449 55.342 22.1399C55.1929 22.4349 54.9816 22.6644 54.7081 22.8285C54.4347 22.9925 54.1116 23.0746 53.7387 23.0746ZM53.7437 22.3537C53.9458 22.3537 54.1149 22.2982 54.2508 22.1871C54.3866 22.0745 54.4877 21.9237 54.554 21.7347C54.622 21.5458 54.6559 21.3353 54.6559 21.1033C54.6559 20.8697 54.622 20.6584 54.554 20.4695C54.4877 20.2789 54.3866 20.1272 54.2508 20.0146C54.1149 19.9019 53.9458 19.8455 53.7437 19.8455C53.5365 19.8455 53.3642 19.9019 53.2266 20.0146C53.0907 20.1272 52.9888 20.2789 52.9209 20.4695C52.8546 20.6584 52.8214 20.8697 52.8214 21.1033C52.8214 21.3353 52.8546 21.5458 52.9209 21.7347C52.9888 21.9237 53.0907 22.0745 53.2266 22.1871C53.3642 22.2982 53.5365 22.3537 53.7437 22.3537ZM57.1995 21.782L58.7283 19.1818H59.653V23H58.783V20.3974L57.2592 23H56.332V19.1818H57.1995V21.782ZM58.4822 17.8693H59.1559C59.1559 18.1593 59.0506 18.3946 58.8402 18.5753C58.6313 18.7543 58.348 18.8438 57.99 18.8438C57.6354 18.8438 57.3528 18.7543 57.1424 18.5753C56.9335 18.3946 56.83 18.1593 56.8316 17.8693H57.5003C57.5003 17.9886 57.5368 18.0955 57.6097 18.19C57.6843 18.2828 57.811 18.3292 57.99 18.3292C58.1657 18.3292 58.2908 18.2828 58.3654 18.19C58.4416 18.0972 58.4805 17.9903 58.4822 17.8693ZM60.1495 19.9201V19.1818H63.4905V19.9201H62.255V23H61.385V19.9201H60.1495ZM65.0745 21.782L66.6033 19.1818H67.528V23H66.658V20.3974L65.1342 23H64.207V19.1818H65.0745V21.782Z" fill="#1E2631" fill-opacity="0.7"/>
<path d="M108.002 23V17.9091H109.911C110.302 17.9091 110.63 17.982 110.896 18.1278C111.162 18.2737 111.364 18.4742 111.5 18.7294C111.637 18.983 111.706 19.2713 111.706 19.5945C111.706 19.9209 111.637 20.2109 111.5 20.4645C111.362 20.718 111.159 20.9177 110.891 21.0636C110.622 21.2077 110.292 21.2798 109.899 21.2798H108.634V20.5217H109.775C110.003 20.5217 110.19 20.4819 110.336 20.4023C110.482 20.3228 110.59 20.2134 110.659 20.0742C110.731 19.935 110.766 19.7751 110.766 19.5945C110.766 19.4138 110.731 19.2547 110.659 19.1172C110.59 18.9796 110.481 18.8728 110.334 18.7965C110.188 18.7186 110 18.6797 109.77 18.6797H108.924V23H108.002ZM114.103 23.0746C113.72 23.0746 113.389 22.995 113.111 22.8359C112.834 22.6752 112.621 22.4482 112.472 22.1548C112.323 21.8598 112.248 21.5127 112.248 21.1133C112.248 20.7205 112.323 20.3758 112.472 20.0792C112.623 19.7809 112.833 19.5489 113.104 19.3832C113.374 19.2158 113.691 19.1321 114.056 19.1321C114.291 19.1321 114.513 19.1702 114.722 19.2464C114.932 19.321 115.118 19.437 115.279 19.5945C115.441 19.7519 115.569 19.9524 115.661 20.196C115.754 20.438 115.801 20.7263 115.801 21.0611V21.337H112.671V20.7305H114.938C114.936 20.5581 114.899 20.4048 114.826 20.2706C114.753 20.1347 114.651 20.0278 114.521 19.9499C114.391 19.872 114.24 19.8331 114.068 19.8331C113.884 19.8331 113.723 19.8778 113.583 19.9673C113.444 20.0552 113.336 20.1712 113.258 20.3153C113.181 20.4579 113.143 20.6145 113.141 20.7852V21.3146C113.141 21.5367 113.181 21.7273 113.263 21.8864C113.344 22.0438 113.457 22.1648 113.603 22.2493C113.749 22.3321 113.92 22.3736 114.115 22.3736C114.246 22.3736 114.365 22.3554 114.471 22.3189C114.577 22.2808 114.669 22.2253 114.747 22.1523C114.825 22.0794 114.883 21.9891 114.923 21.8814L115.763 21.9759C115.71 22.1979 115.609 22.3918 115.46 22.5575C115.313 22.7216 115.124 22.8492 114.893 22.9403C114.663 23.0298 114.4 23.0746 114.103 23.0746ZM119.088 19.1818V19.9201H117.442V23H116.562V19.1818H119.088ZM120.677 21.782L122.205 19.1818H123.13V23H122.26V20.3974L120.736 23H119.809V19.1818H120.677V21.782ZM125.72 23.0746C125.338 23.0746 125.011 22.9909 124.738 22.8235C124.466 22.6561 124.256 22.425 124.109 22.13C123.963 21.8333 123.89 21.492 123.89 21.1058C123.89 20.718 123.965 20.3758 124.114 20.0792C124.263 19.7809 124.473 19.5489 124.745 19.3832C125.019 19.2158 125.342 19.1321 125.715 19.1321C126.025 19.1321 126.299 19.1893 126.537 19.3036C126.778 19.4163 126.969 19.5762 127.112 19.7834C127.254 19.9889 127.335 20.2292 127.355 20.5043H126.495C126.46 20.3203 126.378 20.167 126.247 20.0444C126.117 19.9201 125.944 19.858 125.727 19.858C125.543 19.858 125.382 19.9077 125.242 20.0071C125.103 20.1049 124.995 20.2457 124.917 20.4297C124.84 20.6136 124.802 20.834 124.802 21.0909C124.802 21.3511 124.84 21.5748 124.917 21.7621C124.993 21.9477 125.1 22.091 125.237 22.1921C125.377 22.2915 125.54 22.3413 125.727 22.3413C125.86 22.3413 125.978 22.3164 126.083 22.2667C126.189 22.2153 126.277 22.1416 126.349 22.0455C126.42 21.9493 126.469 21.8325 126.495 21.695H127.355C127.334 21.9651 127.254 22.2045 127.117 22.4134C126.979 22.6205 126.792 22.7829 126.555 22.9006C126.318 23.0166 126.039 23.0746 125.72 23.0746ZM127.817 19.9201V19.1818H131.158V19.9201H129.922V23H129.052V19.9201H127.817ZM131.874 24.4318V19.1818H132.759V19.8132H132.812C132.858 19.7204 132.923 19.6218 133.008 19.5174C133.093 19.4113 133.207 19.321 133.351 19.2464C133.495 19.1702 133.679 19.1321 133.903 19.1321C134.198 19.1321 134.464 19.2075 134.701 19.3583C134.939 19.5075 135.128 19.7287 135.268 20.022C135.408 20.3137 135.479 20.6716 135.479 21.0959C135.479 21.5152 135.41 21.8714 135.273 22.1648C135.135 22.4581 134.948 22.6818 134.711 22.8359C134.474 22.9901 134.205 23.0671 133.905 23.0671C133.687 23.0671 133.505 23.0307 133.361 22.9577C133.217 22.8848 133.101 22.797 133.013 22.6942C132.927 22.5898 132.86 22.4912 132.812 22.3984H132.774V24.4318H131.874ZM132.757 21.0909C132.757 21.3378 132.792 21.5541 132.861 21.7397C132.933 21.9253 133.035 22.0703 133.167 22.1747C133.301 22.2775 133.464 22.3288 133.654 22.3288C133.853 22.3288 134.02 22.2758 134.154 22.1697C134.288 22.062 134.389 21.9154 134.457 21.7298C134.527 21.5425 134.562 21.3295 134.562 21.0909C134.562 20.8539 134.528 20.6435 134.46 20.4595C134.392 20.2756 134.291 20.1314 134.156 20.027C134.022 19.9226 133.855 19.8704 133.654 19.8704C133.462 19.8704 133.299 19.9209 133.165 20.022C133.03 20.1231 132.928 20.2648 132.859 20.4471C132.791 20.6294 132.757 20.844 132.757 21.0909ZM137.348 23.0771C137.106 23.0771 136.888 23.034 136.694 22.9478C136.502 22.86 136.35 22.7307 136.237 22.56C136.126 22.3893 136.07 22.1789 136.07 21.9286C136.07 21.7132 136.11 21.535 136.19 21.3942C136.269 21.2533 136.378 21.1406 136.515 21.0561C136.653 20.9716 136.808 20.9078 136.98 20.8647C137.154 20.82 137.334 20.7876 137.52 20.7678C137.743 20.7446 137.925 20.7238 138.064 20.7056C138.203 20.6857 138.304 20.6559 138.367 20.6161C138.432 20.5747 138.464 20.5109 138.464 20.4247V20.4098C138.464 20.2225 138.409 20.0775 138.298 19.9748C138.187 19.872 138.027 19.8207 137.818 19.8207C137.598 19.8207 137.423 19.8687 137.294 19.9648C137.166 20.061 137.08 20.1745 137.035 20.3054L136.195 20.1861C136.261 19.9541 136.37 19.7602 136.523 19.6044C136.675 19.447 136.862 19.3293 137.082 19.2514C137.303 19.1719 137.546 19.1321 137.813 19.1321C137.997 19.1321 138.18 19.1536 138.362 19.1967C138.545 19.2398 138.711 19.3111 138.862 19.4105C139.013 19.5083 139.134 19.6417 139.225 19.8107C139.318 19.9798 139.364 20.1911 139.364 20.4446V23H138.499V22.4755H138.469C138.415 22.5816 138.338 22.681 138.238 22.7738C138.14 22.8649 138.017 22.9387 137.868 22.995C137.72 23.0497 137.547 23.0771 137.348 23.0771ZM137.582 22.4158C137.762 22.4158 137.919 22.3802 138.052 22.3089C138.184 22.236 138.286 22.1399 138.357 22.0206C138.43 21.9013 138.467 21.7712 138.467 21.6303V21.1804C138.439 21.2036 138.391 21.2251 138.323 21.245C138.256 21.2649 138.182 21.2823 138.099 21.2972C138.016 21.3121 137.934 21.3254 137.853 21.337C137.772 21.3486 137.701 21.3585 137.642 21.3668C137.507 21.3851 137.387 21.4149 137.281 21.4563C137.175 21.4978 137.091 21.5558 137.03 21.6303C136.969 21.7032 136.938 21.7977 136.938 21.9137C136.938 22.0794 136.999 22.2045 137.119 22.2891C137.24 22.3736 137.395 22.4158 137.582 22.4158ZM143.493 19.1818V22.3288H144.077V24.228H143.197V23H140.269V19.1818H141.137V22.2617H142.633V19.1818H143.493ZM145.682 21.782L147.211 19.1818H148.136V23H147.266V20.3974L145.742 23H144.815V19.1818H145.682V21.782ZM151.317 23V19.9126H150.502C150.295 19.9126 150.136 19.9607 150.025 20.0568C149.913 20.1529 149.859 20.2723 149.86 20.4148C149.859 20.5573 149.911 20.675 150.017 20.7678C150.123 20.8606 150.275 20.907 150.472 20.907H151.6V21.5632H150.472C150.167 21.5632 149.904 21.5152 149.681 21.419C149.459 21.3229 149.289 21.187 149.169 21.0114C149.05 20.8357 148.99 20.6302 148.99 20.3949C148.99 20.1496 149.051 19.9367 149.172 19.756C149.295 19.5737 149.469 19.4329 149.694 19.3335C149.921 19.2324 150.19 19.1818 150.502 19.1818H152.16V23H151.317ZM148.851 23L149.918 21.0412H150.805L149.736 23H148.851Z" fill="#159A75"/>
<rect x="100.5" y="27" width="60" height="1" fill="#159A75"/>
<path d="M16.7585 42.0597V41.5653H17.0312C17.1364 41.5653 17.2244 41.5447 17.2955 41.5036C17.3679 41.4624 17.4276 41.4091 17.4744 41.3438C17.5227 41.2784 17.5625 41.2102 17.5938 41.1392L17.6619 40.9773L16.1534 37.6364H16.7244L17.9261 40.3466L19.0256 37.6364H19.5881L18.0795 41.2926C18.0199 41.429 17.9517 41.5554 17.875 41.6719C17.7997 41.7884 17.6967 41.8821 17.5661 41.9531C17.4368 42.0241 17.2614 42.0597 17.0398 42.0597H16.7585ZM19.9641 42V38.7273H20.467V40.1506H20.7994L21.9755 38.7273H22.6232L21.3022 40.304L22.6403 42H21.9925L20.9187 40.6193H20.467V42H19.9641ZM24.1499 42.0767C23.9425 42.0767 23.7543 42.0376 23.5852 41.9595C23.4162 41.88 23.282 41.7656 23.1825 41.6165C23.0831 41.4659 23.0334 41.2841 23.0334 41.071C23.0334 40.8835 23.0703 40.7315 23.1442 40.6151C23.218 40.4972 23.3168 40.4048 23.4403 40.3381C23.5639 40.2713 23.7003 40.2216 23.8494 40.1889C24 40.1548 24.1513 40.1278 24.3033 40.108C24.5021 40.0824 24.6634 40.0632 24.7869 40.0504C24.9119 40.0362 25.0028 40.0128 25.0597 39.9801C25.1179 39.9474 25.147 39.8906 25.147 39.8097V39.7926C25.147 39.5824 25.0895 39.419 24.9744 39.3026C24.8608 39.1861 24.6882 39.1278 24.4567 39.1278C24.2166 39.1278 24.0284 39.1804 23.892 39.2855C23.7557 39.3906 23.6598 39.5028 23.6044 39.6222L23.1271 39.4517C23.2124 39.2528 23.326 39.098 23.468 38.9872C23.6115 38.875 23.7678 38.7969 23.9368 38.7528C24.1072 38.7074 24.2749 38.6847 24.4396 38.6847C24.5447 38.6847 24.6655 38.6974 24.8018 38.723C24.9396 38.7472 25.0724 38.7976 25.2003 38.8743C25.3295 38.951 25.4368 39.0668 25.522 39.2216C25.6072 39.3764 25.6499 39.5838 25.6499 39.8438V42H25.147V41.5568H25.1214C25.0874 41.6278 25.0305 41.7038 24.951 41.7848C24.8714 41.8658 24.7656 41.9347 24.6335 41.9915C24.5014 42.0483 24.3402 42.0767 24.1499 42.0767ZM24.2266 41.625C24.4254 41.625 24.593 41.5859 24.7294 41.5078C24.8672 41.4297 24.9709 41.3288 25.0405 41.2053C25.1115 41.0817 25.147 40.9517 25.147 40.8153V40.3551C25.1257 40.3807 25.0788 40.4041 25.0064 40.4254C24.9354 40.4453 24.853 40.4631 24.7592 40.4787C24.6669 40.4929 24.5767 40.5057 24.4886 40.517C24.402 40.527 24.3317 40.5355 24.2777 40.5426C24.147 40.5597 24.0249 40.5874 23.9112 40.6257C23.799 40.6626 23.7081 40.7187 23.6385 40.794C23.5703 40.8679 23.5362 40.9687 23.5362 41.0966C23.5362 41.2713 23.6009 41.4034 23.7301 41.4929C23.8608 41.581 24.0263 41.625 24.2266 41.625ZM26.3631 42L27.6926 40.3381L26.3801 38.7273H26.9767L28.0676 40.125H28.3404V38.7273H28.8432V40.125H29.1074L30.1983 38.7273H30.7949L29.4909 40.3381L30.812 42H30.2069L29.0989 40.5938H28.8432V42H28.3404V40.5938H28.0847L26.9682 42H26.3631ZM32.0334 41.2585L33.6101 38.7273H34.1896V42H33.6868V39.4688L32.1186 42H31.5305V38.7273H32.0334V41.2585ZM34.6653 39.196V38.7273H37.3244V39.196H36.2505V42H35.7477V39.196H34.6653ZM39.2601 42.0682C38.9448 42.0682 38.6728 41.9986 38.4441 41.8594C38.2168 41.7188 38.0414 41.5227 37.9178 41.2713C37.7956 41.0185 37.7346 40.7244 37.7346 40.3892C37.7346 40.054 37.7956 39.7585 37.9178 39.5028C38.0414 39.2457 38.2132 39.0455 38.4334 38.902C38.655 38.7571 38.9135 38.6847 39.209 38.6847C39.3794 38.6847 39.5478 38.7131 39.714 38.7699C39.8801 38.8267 40.0314 38.919 40.1678 39.0469C40.3042 39.1733 40.4128 39.3409 40.4938 39.5497C40.5748 39.7585 40.6152 40.0156 40.6152 40.321V40.5341H38.0925V40.0994H40.1039C40.1039 39.9148 40.0669 39.75 39.9931 39.6051C39.9206 39.4602 39.8169 39.3459 39.682 39.2621C39.5485 39.1783 39.3908 39.1364 39.209 39.1364C39.0087 39.1364 38.8354 39.1861 38.6891 39.2855C38.5442 39.3835 38.4327 39.5114 38.3546 39.669C38.2765 39.8267 38.2374 39.9957 38.2374 40.1761V40.4659C38.2374 40.7131 38.28 40.9226 38.3652 41.0945C38.4519 41.2649 38.5719 41.3949 38.7253 41.4844C38.8787 41.5724 39.057 41.6165 39.2601 41.6165C39.3922 41.6165 39.5115 41.598 39.6181 41.5611C39.726 41.5227 39.8191 41.4659 39.8972 41.3906C39.9753 41.3139 40.0357 41.2187 40.0783 41.1051L40.5641 41.2415C40.513 41.4062 40.427 41.5511 40.3063 41.6761C40.1855 41.7997 40.0364 41.8963 39.8588 41.9659C39.6813 42.0341 39.4817 42.0682 39.2601 42.0682ZM45.258 40.1335V40.6023H43.4512V40.1335H45.258ZM43.5705 38.7273V42H43.0676V38.7273H43.5705ZM45.6415 38.7273V42H45.1387V38.7273H45.6415ZM47.8894 42.0682C47.5939 42.0682 47.3347 41.9979 47.1117 41.8572C46.8901 41.7166 46.7168 41.5199 46.5918 41.267C46.4682 41.0142 46.4064 40.7187 46.4064 40.3807C46.4064 40.0398 46.4682 39.7422 46.5918 39.4879C46.7168 39.2337 46.8901 39.0362 47.1117 38.8956C47.3347 38.755 47.5939 38.6847 47.8894 38.6847C48.1848 38.6847 48.4434 38.755 48.665 38.8956C48.888 39.0362 49.0613 39.2337 49.1848 39.4879C49.3098 39.7422 49.3723 40.0398 49.3723 40.3807C49.3723 40.7187 49.3098 41.0142 49.1848 41.267C49.0613 41.5199 48.888 41.7166 48.665 41.8572C48.4434 41.9979 48.1848 42.0682 47.8894 42.0682ZM47.8894 41.6165C48.1138 41.6165 48.2985 41.5589 48.4434 41.4439C48.5882 41.3288 48.6955 41.1776 48.7651 40.9901C48.8347 40.8026 48.8695 40.5994 48.8695 40.3807C48.8695 40.1619 48.8347 39.9581 48.7651 39.7692C48.6955 39.5803 48.5882 39.4276 48.4434 39.3111C48.2985 39.1946 48.1138 39.1364 47.8894 39.1364C47.665 39.1364 47.4803 39.1946 47.3354 39.3111C47.1905 39.4276 47.0833 39.5803 47.0137 39.7692C46.9441 39.9581 46.9093 40.1619 46.9093 40.3807C46.9093 40.5994 46.9441 40.8026 47.0137 40.9901C47.0833 41.1776 47.1905 41.3288 47.3354 41.4439C47.4803 41.5589 47.665 41.6165 47.8894 41.6165ZM51.9297 41.3182L53.0717 38.7273H53.549L52.1342 42H51.7251L50.3359 38.7273H50.8047L51.9297 41.3182ZM50.6428 38.7273V42H50.1399V38.7273H50.6428ZM53.2166 42V38.7273H53.7195V42H53.2166ZM56.0121 42.0682C55.6967 42.0682 55.4247 41.9986 55.196 41.8594C54.9688 41.7188 54.7933 41.5227 54.6697 41.2713C54.5476 41.0185 54.4865 40.7244 54.4865 40.3892C54.4865 40.054 54.5476 39.7585 54.6697 39.5028C54.7933 39.2457 54.9652 39.0455 55.1854 38.902C55.407 38.7571 55.6655 38.6847 55.9609 38.6847C56.1314 38.6847 56.2997 38.7131 56.4659 38.7699C56.6321 38.8267 56.7834 38.919 56.9197 39.0469C57.0561 39.1733 57.1648 39.3409 57.2457 39.5497C57.3267 39.7585 57.3672 40.0156 57.3672 40.321V40.5341H54.8445V40.0994H56.8558C56.8558 39.9148 56.8189 39.75 56.745 39.6051C56.6726 39.4602 56.5689 39.3459 56.4339 39.2621C56.3004 39.1783 56.1428 39.1364 55.9609 39.1364C55.7607 39.1364 55.5874 39.1861 55.4411 39.2855C55.2962 39.3835 55.1847 39.5114 55.1065 39.669C55.0284 39.8267 54.9893 39.9957 54.9893 40.1761V40.4659C54.9893 40.7131 55.032 40.9226 55.1172 41.0945C55.2038 41.2649 55.3239 41.3949 55.4773 41.4844C55.6307 41.5724 55.8089 41.6165 56.0121 41.6165C56.1442 41.6165 56.2635 41.598 56.37 41.5611C56.478 41.5227 56.571 41.4659 56.6491 41.3906C56.7273 41.3139 56.7876 41.2187 56.8303 41.1051L57.3161 41.2415C57.2649 41.4062 57.179 41.5511 57.0582 41.6761C56.9375 41.7997 56.7884 41.8963 56.6108 41.9659C56.4332 42.0341 56.2337 42.0682 56.0121 42.0682ZM58.1321 43.2273V38.7273H58.6179V39.2472H58.6776C58.7145 39.1903 58.7656 39.1179 58.831 39.0298C58.8977 38.9403 58.9929 38.8608 59.1165 38.7912C59.2415 38.7202 59.4105 38.6847 59.6236 38.6847C59.8991 38.6847 60.142 38.7536 60.3523 38.8913C60.5625 39.0291 60.7266 39.2244 60.8445 39.4773C60.9624 39.7301 61.0213 40.0284 61.0213 40.3722C61.0213 40.7188 60.9624 41.0192 60.8445 41.2734C60.7266 41.5263 60.5632 41.7223 60.3544 41.8615C60.1456 41.9993 59.9048 42.0682 59.6321 42.0682C59.4219 42.0682 59.2536 42.0334 59.1271 41.9638C59.0007 41.8928 58.9034 41.8125 58.8352 41.723C58.767 41.6321 58.7145 41.5568 58.6776 41.4972H58.6349V43.2273H58.1321ZM58.6264 40.3636C58.6264 40.6108 58.6626 40.8288 58.7351 41.0178C58.8075 41.2053 58.9134 41.3523 59.0526 41.4588C59.1918 41.5639 59.3622 41.6165 59.5639 41.6165C59.7741 41.6165 59.9496 41.5611 60.0902 41.4503C60.2322 41.3381 60.3388 41.1875 60.4098 40.9986C60.4822 40.8082 60.5185 40.5966 60.5185 40.3636C60.5185 40.1335 60.483 39.9261 60.4119 39.7415C60.3423 39.5554 60.2365 39.4084 60.0945 39.3004C59.9538 39.1911 59.777 39.1364 59.5639 39.1364C59.3594 39.1364 59.1875 39.1882 59.0483 39.2919C58.9091 39.3942 58.804 39.5376 58.733 39.7223C58.6619 39.9055 58.6264 40.1193 58.6264 40.3636ZM63.2884 39.196V38.7273H65.9474V39.196H64.8736V42H64.3707V39.196H63.2884ZM67.8832 42.0682C67.5678 42.0682 67.2958 41.9986 67.0671 41.8594C66.8398 41.7188 66.6644 41.5227 66.5408 41.2713C66.4187 41.0185 66.3576 40.7244 66.3576 40.3892C66.3576 40.054 66.4187 39.7585 66.5408 39.5028C66.6644 39.2457 66.8363 39.0455 67.0565 38.902C67.2781 38.7571 67.5366 38.6847 67.832 38.6847C68.0025 38.6847 68.1708 38.7131 68.337 38.7699C68.5032 38.8267 68.6545 38.919 68.7908 39.0469C68.9272 39.1733 69.0359 39.3409 69.1168 39.5497C69.1978 39.7585 69.2383 40.0156 69.2383 40.321V40.5341H66.7156V40.0994H68.7269C68.7269 39.9148 68.69 39.75 68.6161 39.6051C68.5437 39.4602 68.44 39.3459 68.305 39.2621C68.1715 39.1783 68.0138 39.1364 67.832 39.1364C67.6317 39.1364 67.4585 39.1861 67.3121 39.2855C67.1673 39.3835 67.0558 39.5114 66.9776 39.669C66.8995 39.8267 66.8604 39.9957 66.8604 40.1761V40.4659C66.8604 40.7131 66.9031 40.9226 66.9883 41.0945C67.0749 41.2649 67.195 41.3949 67.3484 41.4844C67.5018 41.5724 67.68 41.6165 67.8832 41.6165C68.0153 41.6165 68.1346 41.598 68.2411 41.5611C68.3491 41.5227 68.4421 41.4659 68.5202 41.3906C68.5984 41.3139 68.6587 41.2187 68.7013 41.1051L69.1871 41.2415C69.136 41.4062 69.0501 41.5511 68.9293 41.6761C68.8086 41.7997 68.6594 41.8963 68.4819 41.9659C68.3043 42.0341 68.1048 42.0682 67.8832 42.0682ZM69.7134 42V41.5312H69.8327C69.9308 41.5312 70.0124 41.5121 70.0778 41.4737C70.1431 41.4339 70.1957 41.3651 70.2354 41.267C70.2766 41.1676 70.3079 41.0298 70.3292 40.8537C70.3519 40.6761 70.3683 40.4503 70.3782 40.1761L70.4379 38.7273H72.6197V42H72.1168V39.196H70.9151L70.864 40.3636C70.8526 40.6321 70.8285 40.8686 70.7915 41.0732C70.756 41.2763 70.7013 41.4467 70.6275 41.5845C70.555 41.7223 70.4585 41.826 70.3377 41.8956C70.217 41.9652 70.0657 42 69.8839 42H69.7134ZM74.9144 42.0682C74.5991 42.0682 74.3271 41.9986 74.0984 41.8594C73.8711 41.7188 73.6957 41.5227 73.5721 41.2713C73.4499 41.0185 73.3888 40.7244 73.3888 40.3892C73.3888 40.054 73.4499 39.7585 73.5721 39.5028C73.6957 39.2457 73.8675 39.0455 74.0877 38.902C74.3093 38.7571 74.5678 38.6847 74.8633 38.6847C75.0337 38.6847 75.2021 38.7131 75.3683 38.7699C75.5344 38.8267 75.6857 38.919 75.8221 39.0469C75.9585 39.1733 76.0671 39.3409 76.1481 39.5497C76.229 39.7585 76.2695 40.0156 76.2695 40.321V40.5341H73.7468V40.0994H75.7582C75.7582 39.9148 75.7212 39.75 75.6474 39.6051C75.5749 39.4602 75.4712 39.3459 75.3363 39.2621C75.2028 39.1783 75.0451 39.1364 74.8633 39.1364C74.663 39.1364 74.4897 39.1861 74.3434 39.2855C74.1985 39.3835 74.087 39.5114 74.0089 39.669C73.9308 39.8267 73.8917 39.9957 73.8917 40.1761V40.4659C73.8917 40.7131 73.9343 40.9226 74.0195 41.0945C74.1062 41.2649 74.2262 41.3949 74.3796 41.4844C74.533 41.5724 74.7113 41.6165 74.9144 41.6165C75.0465 41.6165 75.1658 41.598 75.2724 41.5611C75.3803 41.5227 75.4734 41.4659 75.5515 41.3906C75.6296 41.3139 75.69 41.2187 75.7326 41.1051L76.2184 41.2415C76.1673 41.4062 76.0813 41.5511 75.9606 41.6761C75.8398 41.7997 75.6907 41.8963 75.5131 41.9659C75.3356 42.0341 75.136 42.0682 74.9144 42.0682ZM78.364 43.1165V37.6364H78.8668V43.1165H78.364ZM78.364 42.0682C78.1424 42.0682 77.9407 42.0284 77.7589 41.9489C77.5771 41.8679 77.4208 41.7536 77.2901 41.6058C77.1594 41.4567 77.0586 41.2784 76.9876 41.071C76.9165 40.8636 76.881 40.6335 76.881 40.3807C76.881 40.125 76.9165 39.8935 76.9876 39.6861C77.0586 39.4773 77.1594 39.2983 77.2901 39.1491C77.4208 39 77.5771 38.8857 77.7589 38.8061C77.9407 38.7251 78.1424 38.6847 78.364 38.6847H78.5174V42.0682H78.364ZM78.364 41.6165H78.4492V39.1364H78.364C78.1964 39.1364 78.0508 39.1705 77.9272 39.2386C77.8036 39.3054 77.7013 39.397 77.6204 39.5135C77.5408 39.6286 77.4812 39.7607 77.4414 39.9098C77.4031 40.0589 77.3839 40.2159 77.3839 40.3807C77.3839 40.5994 77.4187 40.8026 77.4883 40.9901C77.5579 41.1776 77.6651 41.3288 77.81 41.4439C77.9549 41.5589 78.1396 41.6165 78.364 41.6165ZM78.8668 42.0682H78.7134V38.6847H78.8668C79.0884 38.6847 79.2901 38.7251 79.4719 38.8061C79.6538 38.8857 79.81 39 79.9407 39.1491C80.0714 39.2983 80.1722 39.4773 80.2433 39.6861C80.3143 39.8935 80.3498 40.125 80.3498 40.3807C80.3498 40.6335 80.3143 40.8636 80.2433 41.071C80.1722 41.2784 80.0714 41.4567 79.9407 41.6058C79.81 41.7536 79.6538 41.8679 79.4719 41.9489C79.2901 42.0284 79.0884 42.0682 78.8668 42.0682ZM78.8668 41.6165C79.0359 41.6165 79.1815 41.5838 79.3036 41.5185C79.4272 41.4517 79.5288 41.3608 79.6083 41.2457C79.6893 41.1293 79.7489 40.9972 79.7873 40.8494C79.8271 40.7003 79.8469 40.544 79.8469 40.3807C79.8469 40.1619 79.8121 39.9581 79.7425 39.7692C79.6729 39.5803 79.5657 39.4276 79.4208 39.3111C79.2759 39.1946 79.0913 39.1364 78.8668 39.1364H78.7816V41.6165H78.8668ZM82.448 42.0682C82.1525 42.0682 81.8933 41.9979 81.6703 41.8572C81.4487 41.7166 81.2754 41.5199 81.1504 41.267C81.0268 41.0142 80.965 40.7187 80.965 40.3807C80.965 40.0398 81.0268 39.7422 81.1504 39.4879C81.2754 39.2337 81.4487 39.0362 81.6703 38.8956C81.8933 38.755 82.1525 38.6847 82.448 38.6847C82.7434 38.6847 83.002 38.755 83.2235 38.8956C83.4466 39.0362 83.6199 39.2337 83.7434 39.4879C83.8684 39.7422 83.9309 40.0398 83.9309 40.3807C83.9309 40.7187 83.8684 41.0142 83.7434 41.267C83.6199 41.5199 83.4466 41.7166 83.2235 41.8572C83.002 41.9979 82.7434 42.0682 82.448 42.0682ZM82.448 41.6165C82.6724 41.6165 82.8571 41.5589 83.002 41.4439C83.1468 41.3288 83.2541 41.1776 83.3237 40.9901C83.3933 40.8026 83.4281 40.5994 83.4281 40.3807C83.4281 40.1619 83.3933 39.9581 83.3237 39.7692C83.2541 39.5803 83.1468 39.4276 83.002 39.3111C82.8571 39.1946 82.6724 39.1364 82.448 39.1364C82.2235 39.1364 82.0389 39.1946 81.894 39.3111C81.7491 39.4276 81.6419 39.5803 81.5723 39.7692C81.5027 39.9581 81.4679 40.1619 81.4679 40.3807C81.4679 40.5994 81.5027 40.8026 81.5723 40.9901C81.6419 41.1776 81.7491 41.3288 81.894 41.4439C82.0389 41.5589 82.2235 41.6165 82.448 41.6165ZM86.8888 40.1335V40.6023H85.082V40.1335H86.8888ZM85.2013 38.7273V42H84.6985V38.7273H85.2013ZM87.2724 38.7273V42H86.7695V38.7273H87.2724ZM89.1538 42.0767C88.9464 42.0767 88.7582 42.0376 88.5891 41.9595C88.4201 41.88 88.2859 41.7656 88.1864 41.6165C88.087 41.4659 88.0373 41.2841 88.0373 41.071C88.0373 40.8835 88.0742 40.7315 88.1481 40.6151C88.2219 40.4972 88.3207 40.4048 88.4442 40.3381C88.5678 40.2713 88.7042 40.2216 88.8533 40.1889C89.0039 40.1548 89.1552 40.1278 89.3072 40.108C89.506 40.0824 89.6673 40.0632 89.7908 40.0504C89.9158 40.0362 90.0067 40.0128 90.0636 39.9801C90.1218 39.9474 90.1509 39.8906 90.1509 39.8097V39.7926C90.1509 39.5824 90.0934 39.419 89.9783 39.3026C89.8647 39.1861 89.6921 39.1278 89.4606 39.1278C89.2205 39.1278 89.0323 39.1804 88.896 39.2855C88.7596 39.3906 88.6637 39.5028 88.6083 39.6222L88.131 39.4517C88.2163 39.2528 88.3299 39.098 88.4719 38.9872C88.6154 38.875 88.7717 38.7969 88.9407 38.7528C89.1112 38.7074 89.2788 38.6847 89.4435 38.6847C89.5487 38.6847 89.6694 38.6974 89.8058 38.723C89.9435 38.7472 90.0763 38.7976 90.2042 38.8743C90.3335 38.951 90.4407 39.0668 90.5259 39.2216C90.6112 39.3764 90.6538 39.5838 90.6538 39.8438V42H90.1509V41.5568H90.1254C90.0913 41.6278 90.0344 41.7038 89.9549 41.7848C89.8754 41.8658 89.7695 41.9347 89.6374 41.9915C89.5053 42.0483 89.3441 42.0767 89.1538 42.0767ZM89.2305 41.625C89.4293 41.625 89.5969 41.5859 89.7333 41.5078C89.8711 41.4297 89.9748 41.3288 90.0444 41.2053C90.1154 41.0817 90.1509 40.9517 90.1509 40.8153V40.3551C90.1296 40.3807 90.0827 40.4041 90.0103 40.4254C89.9393 40.4453 89.8569 40.4631 89.7631 40.4787C89.6708 40.4929 89.5806 40.5057 89.4925 40.517C89.4059 40.527 89.3356 40.5355 89.2816 40.5426C89.1509 40.5597 89.0288 40.5874 88.9151 40.6257C88.8029 40.6626 88.712 40.7187 88.6424 40.794C88.5742 40.8679 88.5401 40.9687 88.5401 41.0966C88.5401 41.2713 88.6048 41.4034 88.734 41.4929C88.8647 41.581 89.0302 41.625 89.2305 41.625ZM92.9096 42.9375V41.5312H93.1824C93.2491 41.4616 93.3066 41.3864 93.3549 41.3054C93.4032 41.2244 93.4451 41.1286 93.4806 41.0178C93.5176 40.9055 93.5488 40.7692 93.5744 40.6087C93.6 40.4467 93.6227 40.2514 93.6426 40.0227L93.7534 38.7273H95.8329V41.5312H96.3358V42.9375H95.8329V42H93.4125V42.9375H92.9096ZM93.7534 41.5312H95.3301V39.196H94.2221L94.1369 40.0227C94.1014 40.3651 94.0574 40.6641 94.0048 40.9197C93.9522 41.1754 93.8684 41.3793 93.7534 41.5312ZM96.7134 42V41.5312H96.8327C96.9308 41.5312 97.0124 41.5121 97.0778 41.4737C97.1431 41.4339 97.1957 41.3651 97.2354 41.267C97.2766 41.1676 97.3079 41.0298 97.3292 40.8537C97.3519 40.6761 97.3683 40.4503 97.3782 40.1761L97.4379 38.7273H99.6197V42H99.1168V39.196H97.9151L97.864 40.3636C97.8526 40.6321 97.8285 40.8686 97.7915 41.0732C97.756 41.2763 97.7013 41.4467 97.6275 41.5845C97.555 41.7223 97.4585 41.826 97.3377 41.8956C97.217 41.9652 97.0657 42 96.8839 42H96.7134ZM102.511 42V39.1875H101.642C101.446 39.1875 101.292 39.233 101.179 39.3239C101.067 39.4148 101.011 39.5398 101.011 39.6989C101.011 39.8551 101.061 39.978 101.162 40.0675C101.265 40.157 101.404 40.2017 101.582 40.2017H102.639V40.6705H101.582C101.36 40.6705 101.169 40.6314 101.009 40.5533C100.848 40.4751 100.725 40.3636 100.638 40.2188C100.551 40.0724 100.508 39.8991 100.508 39.6989C100.508 39.4972 100.554 39.3239 100.645 39.179C100.735 39.0341 100.865 38.9226 101.034 38.8445C101.205 38.7663 101.407 38.7273 101.642 38.7273H102.988V42H102.511ZM100.329 42L101.258 40.3722H101.804L100.875 42H100.329ZM105.599 43.2273V38.7273H106.085V39.2472H106.144C106.181 39.1903 106.232 39.1179 106.298 39.0298C106.365 38.9403 106.46 38.8608 106.583 38.7912C106.708 38.7202 106.877 38.6847 107.09 38.6847C107.366 38.6847 107.609 38.7536 107.819 38.8913C108.029 39.0291 108.193 39.2244 108.311 39.4773C108.429 39.7301 108.488 40.0284 108.488 40.3722C108.488 40.7188 108.429 41.0192 108.311 41.2734C108.193 41.5263 108.03 41.7223 107.821 41.8615C107.612 41.9993 107.372 42.0682 107.099 42.0682C106.889 42.0682 106.72 42.0334 106.594 41.9638C106.468 41.8928 106.37 41.8125 106.302 41.723C106.234 41.6321 106.181 41.5568 106.144 41.4972H106.102V43.2273H105.599ZM106.093 40.3636C106.093 40.6108 106.129 40.8288 106.202 41.0178C106.274 41.2053 106.38 41.3523 106.519 41.4588C106.659 41.5639 106.829 41.6165 107.031 41.6165C107.241 41.6165 107.416 41.5611 107.557 41.4503C107.699 41.3381 107.806 41.1875 107.877 40.9986C107.949 40.8082 107.985 40.5966 107.985 40.3636C107.985 40.1335 107.95 39.9261 107.879 39.7415C107.809 39.5554 107.703 39.4084 107.561 39.3004C107.421 39.1911 107.244 39.1364 107.031 39.1364C106.826 39.1364 106.654 39.1882 106.515 39.2919C106.376 39.3942 106.271 39.5376 106.2 39.7223C106.129 39.9055 106.093 40.1193 106.093 40.3636ZM110.627 42.0682C110.312 42.0682 110.04 41.9986 109.811 41.8594C109.584 41.7188 109.409 41.5227 109.285 41.2713C109.163 41.0185 109.102 40.7244 109.102 40.3892C109.102 40.054 109.163 39.7585 109.285 39.5028C109.409 39.2457 109.58 39.0455 109.801 38.902C110.022 38.7571 110.281 38.6847 110.576 38.6847C110.747 38.6847 110.915 38.7131 111.081 38.7699C111.247 38.8267 111.399 38.919 111.535 39.0469C111.671 39.1733 111.78 39.3409 111.861 39.5497C111.942 39.7585 111.982 40.0156 111.982 40.321V40.5341H109.46V40.0994H111.471C111.471 39.9148 111.434 39.75 111.36 39.6051C111.288 39.4602 111.184 39.3459 111.049 39.2621C110.916 39.1783 110.758 39.1364 110.576 39.1364C110.376 39.1364 110.203 39.1861 110.056 39.2855C109.911 39.3835 109.8 39.5114 109.722 39.669C109.644 39.8267 109.605 39.9957 109.605 40.1761V40.4659C109.605 40.7131 109.647 40.9226 109.732 41.0945C109.819 41.2649 109.939 41.3949 110.093 41.4844C110.246 41.5724 110.424 41.6165 110.627 41.6165C110.759 41.6165 110.879 41.598 110.985 41.5611C111.093 41.5227 111.186 41.4659 111.264 41.3906C111.343 41.3139 111.403 41.2187 111.445 41.1051L111.931 41.2415C111.88 41.4062 111.794 41.5511 111.673 41.6761C111.553 41.7997 111.404 41.8963 111.226 41.9659C111.048 42.0341 110.849 42.0682 110.627 42.0682ZM114.767 38.7273V39.196H113.25V42H112.747V38.7273H114.767ZM116.004 41.2585L117.581 38.7273H118.16V42H117.657V39.4688L116.089 42H115.501V38.7273H116.004V41.2585ZM120.411 42.0682C120.104 42.0682 119.84 41.9957 119.618 41.8509C119.397 41.706 119.226 41.5064 119.107 41.2521C118.988 40.9979 118.928 40.7074 118.928 40.3807C118.928 40.0483 118.989 39.755 119.111 39.5007C119.235 39.245 119.407 39.0455 119.627 38.902C119.848 38.7571 120.107 38.6847 120.402 38.6847C120.632 38.6847 120.84 38.7273 121.025 38.8125C121.209 38.8977 121.36 39.017 121.478 39.1705C121.596 39.3239 121.669 39.5028 121.698 39.7074H121.195C121.157 39.5582 121.071 39.4261 120.939 39.3111C120.809 39.1946 120.632 39.1364 120.411 39.1364C120.215 39.1364 120.043 39.1875 119.895 39.2898C119.749 39.3906 119.635 39.5334 119.552 39.718C119.471 39.9013 119.431 40.1165 119.431 40.3636C119.431 40.6165 119.471 40.8366 119.55 41.0241C119.631 41.2116 119.745 41.3572 119.891 41.4609C120.039 41.5646 120.212 41.6165 120.411 41.6165C120.542 41.6165 120.66 41.5938 120.767 41.5483C120.873 41.5028 120.963 41.4375 121.037 41.3523C121.111 41.267 121.164 41.1648 121.195 41.0455H121.698C121.669 41.2386 121.599 41.4126 121.487 41.5675C121.376 41.7209 121.229 41.843 121.046 41.9339C120.864 42.0234 120.652 42.0682 120.411 42.0682ZM122.175 39.196V38.7273H124.834V39.196H123.76V42H123.257V39.196H122.175ZM125.568 43.2273V38.7273H126.053V39.2472H126.113C126.15 39.1903 126.201 39.1179 126.267 39.0298C126.333 38.9403 126.428 38.8608 126.552 38.7912C126.677 38.7202 126.846 38.6847 127.059 38.6847C127.335 38.6847 127.578 38.7536 127.788 38.8913C127.998 39.0291 128.162 39.2244 128.28 39.4773C128.398 39.7301 128.457 40.0284 128.457 40.3722C128.457 40.7188 128.398 41.0192 128.28 41.2734C128.162 41.5263 127.999 41.7223 127.79 41.8615C127.581 41.9993 127.34 42.0682 127.068 42.0682C126.857 42.0682 126.689 42.0334 126.563 41.9638C126.436 41.8928 126.339 41.8125 126.271 41.723C126.203 41.6321 126.15 41.5568 126.113 41.4972H126.07V43.2273H125.568ZM126.062 40.3636C126.062 40.6108 126.098 40.8288 126.171 41.0178C126.243 41.2053 126.349 41.3523 126.488 41.4588C126.627 41.5639 126.798 41.6165 126.999 41.6165C127.21 41.6165 127.385 41.5611 127.526 41.4503C127.668 41.3381 127.774 41.1875 127.845 40.9986C127.918 40.8082 127.954 40.5966 127.954 40.3636C127.954 40.1335 127.919 39.9261 127.847 39.7415C127.778 39.5554 127.672 39.4084 127.53 39.3004C127.389 39.1911 127.213 39.1364 126.999 39.1364C126.795 39.1364 126.623 39.1882 126.484 39.2919C126.345 39.3942 126.24 39.5376 126.169 39.7223C126.097 39.9055 126.062 40.1193 126.062 40.3636ZM130.187 42.0767C129.98 42.0767 129.791 42.0376 129.622 41.9595C129.453 41.88 129.319 41.7656 129.22 41.6165C129.12 41.4659 129.07 41.2841 129.07 41.071C129.07 40.8835 129.107 40.7315 129.181 40.6151C129.255 40.4972 129.354 40.4048 129.477 40.3381C129.601 40.2713 129.737 40.2216 129.887 40.1889C130.037 40.1548 130.188 40.1278 130.34 40.108C130.539 40.0824 130.7 40.0632 130.824 40.0504C130.949 40.0362 131.04 40.0128 131.097 39.9801C131.155 39.9474 131.184 39.8906 131.184 39.8097V39.7926C131.184 39.5824 131.127 39.419 131.012 39.3026C130.898 39.1861 130.725 39.1278 130.494 39.1278C130.254 39.1278 130.066 39.1804 129.929 39.2855C129.793 39.3906 129.697 39.5028 129.642 39.6222L129.164 39.4517C129.249 39.2528 129.363 39.098 129.505 38.9872C129.649 38.875 129.805 38.7969 129.974 38.7528C130.144 38.7074 130.312 38.6847 130.477 38.6847C130.582 38.6847 130.703 38.6974 130.839 38.723C130.977 38.7472 131.11 38.7976 131.237 38.8743C131.367 38.951 131.474 39.0668 131.559 39.2216C131.644 39.3764 131.687 39.5838 131.687 39.8438V42H131.184V41.5568H131.159C131.124 41.6278 131.068 41.7038 130.988 41.7848C130.909 41.8658 130.803 41.9347 130.671 41.9915C130.539 42.0483 130.377 42.0767 130.187 42.0767ZM130.264 41.625C130.463 41.625 130.63 41.5859 130.767 41.5078C130.904 41.4297 131.008 41.3288 131.078 41.2053C131.149 41.0817 131.184 40.9517 131.184 40.8153V40.3551C131.163 40.3807 131.116 40.4041 131.044 40.4254C130.972 40.4453 130.89 40.4631 130.796 40.4787C130.704 40.4929 130.614 40.5057 130.526 40.517C130.439 40.527 130.369 40.5355 130.315 40.5426C130.184 40.5597 130.062 40.5874 129.948 40.6257C129.836 40.6626 129.745 40.7187 129.676 40.794C129.607 40.8679 129.573 40.9687 129.573 41.0966C129.573 41.2713 129.638 41.4034 129.767 41.4929C129.898 41.581 130.063 41.625 130.264 41.625ZM135.179 38.7273V41.5312H135.639V43.0568H135.136V42H132.605V38.7273H133.108V41.5312H134.676V38.7273H135.179ZM136.916 41.2585L138.493 38.7273H139.072V42H138.57V39.4688L137.001 42H136.413V38.7273H136.916V41.2585ZM140.496 41.2585L142.073 38.7273H142.653V42H142.15V39.4688L140.581 42H139.993V38.7273H140.496V41.2585ZM147.451 40.1335V40.6023H145.645V40.1335H147.451ZM145.764 38.7273V42H145.261V38.7273H145.764ZM147.835 38.7273V42H147.332V38.7273H147.835ZM149.716 42.0767C149.509 42.0767 149.321 42.0376 149.152 41.9595C148.983 41.88 148.848 41.7656 148.749 41.6165C148.65 41.4659 148.6 41.2841 148.6 41.071C148.6 40.8835 148.637 40.7315 148.711 40.6151C148.784 40.4972 148.883 40.4048 149.007 40.3381C149.13 40.2713 149.267 40.2216 149.416 40.1889C149.566 40.1548 149.718 40.1278 149.87 40.108C150.069 40.0824 150.23 40.0632 150.353 40.0504C150.478 40.0362 150.569 40.0128 150.626 39.9801C150.684 39.9474 150.713 39.8906 150.713 39.8097V39.7926C150.713 39.5824 150.656 39.419 150.541 39.3026C150.427 39.1861 150.255 39.1278 150.023 39.1278C149.783 39.1278 149.595 39.1804 149.458 39.2855C149.322 39.3906 149.226 39.5028 149.171 39.6222L148.694 39.4517C148.779 39.2528 148.892 39.098 149.034 38.9872C149.178 38.875 149.334 38.7969 149.503 38.7528C149.674 38.7074 149.841 38.6847 150.006 38.6847C150.111 38.6847 150.232 38.6974 150.368 38.723C150.506 38.7472 150.639 38.7976 150.767 38.8743C150.896 38.951 151.003 39.0668 151.088 39.2216C151.174 39.3764 151.216 39.5838 151.216 39.8438V42H150.713V41.5568H150.688C150.654 41.6278 150.597 41.7038 150.517 41.7848C150.438 41.8658 150.332 41.9347 150.2 41.9915C150.068 42.0483 149.907 42.0767 149.716 42.0767ZM149.793 41.625C149.992 41.625 150.159 41.5859 150.296 41.5078C150.434 41.4297 150.537 41.3288 150.607 41.2053C150.678 41.0817 150.713 40.9517 150.713 40.8153V40.3551C150.692 40.3807 150.645 40.4041 150.573 40.4254C150.502 40.4453 150.419 40.4631 150.326 40.4787C150.233 40.4929 150.143 40.5057 150.055 40.517C149.968 40.527 149.898 40.5355 149.844 40.5426C149.713 40.5597 149.591 40.5874 149.478 40.6257C149.365 40.6626 149.275 40.7187 149.205 40.794C149.137 40.8679 149.103 40.9687 149.103 41.0966C149.103 41.2713 149.167 41.4034 149.297 41.4929C149.427 41.581 149.593 41.625 149.793 41.625ZM155.151 42.0682C154.844 42.0682 154.58 41.9957 154.358 41.8509C154.137 41.706 153.966 41.5064 153.847 41.2521C153.728 40.9979 153.668 40.7074 153.668 40.3807C153.668 40.0483 153.729 39.755 153.851 39.5007C153.975 39.245 154.147 39.0455 154.367 38.902C154.589 38.7571 154.847 38.6847 155.143 38.6847C155.373 38.6847 155.58 38.7273 155.765 38.8125C155.949 38.8977 156.101 39.017 156.219 39.1705C156.336 39.3239 156.41 39.5028 156.438 39.7074H155.935C155.897 39.5582 155.812 39.4261 155.68 39.3111C155.549 39.1946 155.373 39.1364 155.151 39.1364C154.955 39.1364 154.783 39.1875 154.635 39.2898C154.489 39.3906 154.375 39.5334 154.292 39.718C154.211 39.9013 154.171 40.1165 154.171 40.3636C154.171 40.6165 154.211 40.8366 154.29 41.0241C154.371 41.2116 154.485 41.3572 154.631 41.4609C154.779 41.5646 154.952 41.6165 155.151 41.6165C155.282 41.6165 155.4 41.5938 155.507 41.5483C155.613 41.5028 155.704 41.4375 155.778 41.3523C155.851 41.267 155.904 41.1648 155.935 41.0455H156.438C156.41 41.2386 156.339 41.4126 156.227 41.5675C156.116 41.7209 155.969 41.843 155.786 41.9339C155.604 42.0234 155.393 42.0682 155.151 42.0682ZM158.136 42.0767C157.929 42.0767 157.741 42.0376 157.572 41.9595C157.403 41.88 157.268 41.7656 157.169 41.6165C157.069 41.4659 157.02 41.2841 157.02 41.071C157.02 40.8835 157.057 40.7315 157.131 40.6151C157.204 40.4972 157.303 40.4048 157.427 40.3381C157.55 40.2713 157.687 40.2216 157.836 40.1889C157.986 40.1548 158.138 40.1278 158.29 40.108C158.488 40.0824 158.65 40.0632 158.773 40.0504C158.898 40.0362 158.989 40.0128 159.046 39.9801C159.104 39.9474 159.133 39.8906 159.133 39.8097V39.7926C159.133 39.5824 159.076 39.419 158.961 39.3026C158.847 39.1861 158.675 39.1278 158.443 39.1278C158.203 39.1278 158.015 39.1804 157.878 39.2855C157.742 39.3906 157.646 39.5028 157.591 39.6222L157.113 39.4517C157.199 39.2528 157.312 39.098 157.454 38.9872C157.598 38.875 157.754 38.7969 157.923 38.7528C158.094 38.7074 158.261 38.6847 158.426 38.6847C158.531 38.6847 158.652 38.6974 158.788 38.723C158.926 38.7472 159.059 38.7976 159.187 38.8743C159.316 38.951 159.423 39.0668 159.508 39.2216C159.594 39.3764 159.636 39.5838 159.636 39.8438V42H159.133V41.5568H159.108C159.074 41.6278 159.017 41.7038 158.937 41.7848C158.858 41.8658 158.752 41.9347 158.62 41.9915C158.488 42.0483 158.327 42.0767 158.136 42.0767ZM158.213 41.625C158.412 41.625 158.579 41.5859 158.716 41.5078C158.854 41.4297 158.957 41.3288 159.027 41.2053C159.098 41.0817 159.133 40.9517 159.133 40.8153V40.3551C159.112 40.3807 159.065 40.4041 158.993 40.4254C158.922 40.4453 158.839 40.4631 158.746 40.4787C158.653 40.4929 158.563 40.5057 158.475 40.517C158.388 40.527 158.318 40.5355 158.264 40.5426C158.133 40.5597 158.011 40.5874 157.898 40.6257C157.785 40.6626 157.694 40.7187 157.625 40.794C157.557 40.8679 157.523 40.9687 157.523 41.0966C157.523 41.2713 157.587 41.4034 157.716 41.4929C157.847 41.581 158.013 41.625 158.213 41.625ZM161.057 41.2585L162.634 38.7273H163.213V42H162.71V39.4688L161.142 42H160.554V38.7273H161.057V41.2585ZM162.301 37.6364H162.77C162.77 37.8665 162.69 38.0547 162.531 38.201C162.372 38.3473 162.156 38.4205 161.884 38.4205C161.615 38.4205 161.401 38.3473 161.242 38.201C161.085 38.0547 161.006 37.8665 161.006 37.6364H161.474C161.474 37.7472 161.505 37.8445 161.566 37.9283C161.629 38.0121 161.734 38.054 161.884 38.054C162.033 38.054 162.139 38.0121 162.203 37.9283C162.268 37.8445 162.301 37.7472 162.301 37.6364ZM163.689 39.196V38.7273H166.348V39.196H165.274V42H164.771V39.196H163.689ZM168.284 42.0682C167.968 42.0682 167.696 41.9986 167.468 41.8594C167.24 41.7188 167.065 41.5227 166.941 41.2713C166.819 41.0185 166.758 40.7244 166.758 40.3892C166.758 40.054 166.819 39.7585 166.941 39.5028C167.065 39.2457 167.237 39.0455 167.457 38.902C167.678 38.7571 167.937 38.6847 168.232 38.6847C168.403 38.6847 168.571 38.7131 168.737 38.7699C168.904 38.8267 169.055 38.919 169.191 39.0469C169.328 39.1733 169.436 39.3409 169.517 39.5497C169.598 39.7585 169.639 40.0156 169.639 40.321V40.5341H167.116V40.0994H169.127C169.127 39.9148 169.09 39.75 169.017 39.6051C168.944 39.4602 168.84 39.3459 168.705 39.2621C168.572 39.1783 168.414 39.1364 168.232 39.1364C168.032 39.1364 167.859 39.1861 167.713 39.2855C167.568 39.3835 167.456 39.5114 167.378 39.669C167.3 39.8267 167.261 39.9957 167.261 40.1761V40.4659C167.261 40.7131 167.303 40.9226 167.389 41.0945C167.475 41.2649 167.595 41.3949 167.749 41.4844C167.902 41.5724 168.08 41.6165 168.284 41.6165C168.416 41.6165 168.535 41.598 168.642 41.5611C168.749 41.5227 168.843 41.4659 168.921 41.3906C168.999 41.3139 169.059 41.2187 169.102 41.1051L169.588 41.2415C169.536 41.4062 169.45 41.5511 169.33 41.6761C169.209 41.7997 169.06 41.8963 168.882 41.9659C168.705 42.0341 168.505 42.0682 168.284 42.0682Z" fill="#1E2631"/>
<rect x="16.1" y="53.1" width="155.8" height="14.8" rx="3.9" stroke="#1E2631" stroke-opacity="0.2" stroke-width="0.2"/>
<path d="M20.5284 63V58.6364H21.0568V60.5795H23.3835V58.6364H23.9119V63H23.3835V61.0483H21.0568V63H20.5284ZM26.2312 63.0682C25.9357 63.0682 25.6765 62.9979 25.4535 62.8572C25.2319 62.7166 25.0586 62.5199 24.9336 62.267C24.81 62.0142 24.7482 61.7187 24.7482 61.3807C24.7482 61.0398 24.81 60.7422 24.9336 60.4879C25.0586 60.2337 25.2319 60.0362 25.4535 59.8956C25.6765 59.755 25.9357 59.6847 26.2312 59.6847C26.5266 59.6847 26.7852 59.755 27.0067 59.8956C27.2298 60.0362 27.4031 60.2337 27.5266 60.4879C27.6516 60.7422 27.7141 61.0398 27.7141 61.3807C27.7141 61.7187 27.6516 62.0142 27.5266 62.267C27.4031 62.5199 27.2298 62.7166 27.0067 62.8572C26.7852 62.9979 26.5266 63.0682 26.2312 63.0682ZM26.2312 62.6165C26.4556 62.6165 26.6403 62.5589 26.7852 62.4439C26.93 62.3288 27.0373 62.1776 27.1069 61.9901C27.1765 61.8026 27.2113 61.5994 27.2113 61.3807C27.2113 61.1619 27.1765 60.9581 27.1069 60.7692C27.0373 60.5803 26.93 60.4276 26.7852 60.3111C26.6403 60.1946 26.4556 60.1364 26.2312 60.1364C26.0067 60.1364 25.8221 60.1946 25.6772 60.3111C25.5323 60.4276 25.4251 60.5803 25.3555 60.7692C25.2859 60.9581 25.2511 61.1619 25.2511 61.3807C25.2511 61.5994 25.2859 61.8026 25.3555 61.9901C25.4251 62.1776 25.5323 62.3288 25.6772 62.4439C25.8221 62.5589 26.0067 62.6165 26.2312 62.6165ZM30.2715 62.3182L31.4135 59.7273H31.8908L30.476 63H30.0669L28.6777 59.7273H29.1465L30.2715 62.3182ZM28.9846 59.7273V63H28.4817V59.7273H28.9846ZM31.5584 63V59.7273H32.0613V63H31.5584ZM34.3539 63.0682C34.0385 63.0682 33.7665 62.9986 33.5378 62.8594C33.3105 62.7188 33.1351 62.5227 33.0115 62.2713C32.8894 62.0185 32.8283 61.7244 32.8283 61.3892C32.8283 61.054 32.8894 60.7585 33.0115 60.5028C33.1351 60.2457 33.307 60.0455 33.5272 59.902C33.7488 59.7571 34.0073 59.6847 34.3027 59.6847C34.4732 59.6847 34.6415 59.7131 34.8077 59.7699C34.9739 59.8267 35.1252 59.919 35.2615 60.0469C35.3979 60.1733 35.5066 60.3409 35.5875 60.5497C35.6685 60.7585 35.709 61.0156 35.709 61.321V61.5341H33.1863V61.0994H35.1976C35.1976 60.9148 35.1607 60.75 35.0868 60.6051C35.0144 60.4602 34.9107 60.3459 34.7757 60.2621C34.6422 60.1783 34.4846 60.1364 34.3027 60.1364C34.1025 60.1364 33.9292 60.1861 33.7828 60.2855C33.638 60.3835 33.5265 60.5114 33.4483 60.669C33.3702 60.8267 33.3311 60.9957 33.3311 61.1761V61.4659C33.3311 61.7131 33.3738 61.9226 33.459 62.0945C33.5456 62.2649 33.6657 62.3949 33.8191 62.4844C33.9725 62.5724 34.1507 62.6165 34.3539 62.6165C34.486 62.6165 34.6053 62.598 34.7118 62.5611C34.8198 62.5227 34.9128 62.4659 34.9909 62.3906C35.0691 62.3139 35.1294 62.2187 35.1721 62.1051L35.6578 62.2415C35.6067 62.4062 35.5208 62.5511 35.4 62.6761C35.2793 62.7997 35.1301 62.8963 34.9526 62.9659C34.775 63.0341 34.5755 63.0682 34.3539 63.0682ZM36.4739 64.2273V59.7273H36.9597V60.2472H37.0194C37.0563 60.1903 37.1074 60.1179 37.1728 60.0298C37.2395 59.9403 37.3347 59.8608 37.4583 59.7912C37.5833 59.7202 37.7523 59.6847 37.9654 59.6847C38.2409 59.6847 38.4838 59.7536 38.6941 59.8913C38.9043 60.0291 39.0684 60.2244 39.1863 60.4773C39.3042 60.7301 39.3631 61.0284 39.3631 61.3722C39.3631 61.7188 39.3042 62.0192 39.1863 62.2734C39.0684 62.5263 38.905 62.7223 38.6962 62.8615C38.4874 62.9993 38.2466 63.0682 37.9739 63.0682C37.7637 63.0682 37.5953 63.0334 37.4689 62.9638C37.3425 62.8928 37.2452 62.8125 37.177 62.723C37.1088 62.6321 37.0563 62.5568 37.0194 62.4972H36.9767V64.2273H36.4739ZM36.9682 61.3636C36.9682 61.6108 37.0044 61.8288 37.0769 62.0178C37.1493 62.2053 37.2551 62.3523 37.3944 62.4588C37.5336 62.5639 37.704 62.6165 37.9057 62.6165C38.1159 62.6165 38.2914 62.5611 38.432 62.4503C38.574 62.3381 38.6806 62.1875 38.7516 61.9986C38.824 61.8082 38.8603 61.5966 38.8603 61.3636C38.8603 61.1335 38.8248 60.9261 38.7537 60.7415C38.6841 60.5554 38.5783 60.4084 38.4363 60.3004C38.2956 60.1911 38.1188 60.1364 37.9057 60.1364C37.7012 60.1364 37.5293 60.1882 37.3901 60.2919C37.2509 60.3942 37.1458 60.5376 37.0748 60.7223C37.0037 60.9055 36.9682 61.1193 36.9682 61.3636ZM41.6301 60.196V59.7273H44.2892V60.196H43.2154V63H42.7125V60.196H41.6301ZM46.225 63.0682C45.9096 63.0682 45.6376 62.9986 45.4089 62.8594C45.1816 62.7188 45.0062 62.5227 44.8826 62.2713C44.7605 62.0185 44.6994 61.7244 44.6994 61.3892C44.6994 61.054 44.7605 60.7585 44.8826 60.5028C45.0062 60.2457 45.1781 60.0455 45.3983 59.902C45.6199 59.7571 45.8784 59.6847 46.1738 59.6847C46.3443 59.6847 46.5126 59.7131 46.6788 59.7699C46.845 59.8267 46.9963 59.919 47.1326 60.0469C47.269 60.1733 47.3777 60.3409 47.4586 60.5497C47.5396 60.7585 47.5801 61.0156 47.5801 61.321V61.5341H45.0574V61.0994H47.0687C47.0687 60.9148 47.0318 60.75 46.9579 60.6051C46.8855 60.4602 46.7818 60.3459 46.6468 60.2621C46.5133 60.1783 46.3556 60.1364 46.1738 60.1364C45.9735 60.1364 45.8002 60.1861 45.6539 60.2855C45.5091 60.3835 45.3975 60.5114 45.3194 60.669C45.2413 60.8267 45.2022 60.9957 45.2022 61.1761V61.4659C45.2022 61.7131 45.2449 61.9226 45.3301 62.0945C45.4167 62.2649 45.5368 62.3949 45.6902 62.4844C45.8436 62.5724 46.0218 62.6165 46.225 62.6165C46.3571 62.6165 46.4764 62.598 46.5829 62.5611C46.6909 62.5227 46.7839 62.4659 46.862 62.3906C46.9402 62.3139 47.0005 62.2187 47.0431 62.1051L47.5289 62.2415C47.4778 62.4062 47.3919 62.5511 47.2711 62.6761C47.1504 62.7997 47.0012 62.8963 46.8237 62.9659C46.6461 63.0341 46.4466 63.0682 46.225 63.0682ZM48.0552 63V62.5312H48.1745C48.2725 62.5312 48.3542 62.5121 48.4196 62.4737C48.4849 62.4339 48.5375 62.3651 48.5772 62.267C48.6184 62.1676 48.6497 62.0298 48.671 61.8537C48.6937 61.6761 48.71 61.4503 48.72 61.1761L48.7797 59.7273H50.9615V63H50.4586V60.196H49.2569L49.2058 61.3636C49.1944 61.6321 49.1703 61.8686 49.1333 62.0732C49.0978 62.2763 49.0431 62.4467 48.9693 62.5845C48.8968 62.7223 48.8002 62.826 48.6795 62.8956C48.5588 62.9652 48.4075 63 48.2257 63H48.0552ZM53.2562 63.0682C52.9409 63.0682 52.6689 62.9986 52.4402 62.8594C52.2129 62.7188 52.0375 62.5227 51.9139 62.2713C51.7917 62.0185 51.7306 61.7244 51.7306 61.3892C51.7306 61.054 51.7917 60.7585 51.9139 60.5028C52.0375 60.2457 52.2093 60.0455 52.4295 59.902C52.6511 59.7571 52.9096 59.6847 53.2051 59.6847C53.3755 59.6847 53.5439 59.7131 53.71 59.7699C53.8762 59.8267 54.0275 59.919 54.1639 60.0469C54.3002 60.1733 54.4089 60.3409 54.4899 60.5497C54.5708 60.7585 54.6113 61.0156 54.6113 61.321V61.5341H52.0886V61.0994H54.1C54.1 60.9148 54.063 60.75 53.9892 60.6051C53.9167 60.4602 53.813 60.3459 53.6781 60.2621C53.5446 60.1783 53.3869 60.1364 53.2051 60.1364C53.0048 60.1364 52.8315 60.1861 52.6852 60.2855C52.5403 60.3835 52.4288 60.5114 52.3507 60.669C52.2725 60.8267 52.2335 60.9957 52.2335 61.1761V61.4659C52.2335 61.7131 52.2761 61.9226 52.3613 62.0945C52.448 62.2649 52.568 62.3949 52.7214 62.4844C52.8748 62.5724 53.0531 62.6165 53.2562 62.6165C53.3883 62.6165 53.5076 62.598 53.6142 62.5611C53.7221 62.5227 53.8152 62.4659 53.8933 62.3906C53.9714 62.3139 54.0318 62.2187 54.0744 62.1051L54.5602 62.2415C54.5091 62.4062 54.4231 62.5511 54.3024 62.6761C54.1816 62.7997 54.0325 62.8963 53.8549 62.9659C53.6774 63.0341 53.4778 63.0682 53.2562 63.0682ZM56.7058 64.1165V58.6364H57.2086V64.1165H56.7058ZM56.7058 63.0682C56.4842 63.0682 56.2825 63.0284 56.1007 62.9489C55.9189 62.8679 55.7626 62.7536 55.6319 62.6058C55.5012 62.4567 55.4004 62.2784 55.3294 62.071C55.2583 61.8636 55.2228 61.6335 55.2228 61.3807C55.2228 61.125 55.2583 60.8935 55.3294 60.6861C55.4004 60.4773 55.5012 60.2983 55.6319 60.1491C55.7626 60 55.9189 59.8857 56.1007 59.8061C56.2825 59.7251 56.4842 59.6847 56.7058 59.6847H56.8592V63.0682H56.7058ZM56.7058 62.6165H56.791V60.1364H56.7058C56.5382 60.1364 56.3926 60.1705 56.269 60.2386C56.1454 60.3054 56.0431 60.397 55.9622 60.5135C55.8826 60.6286 55.823 60.7607 55.7832 60.9098C55.7449 61.0589 55.7257 61.2159 55.7257 61.3807C55.7257 61.5994 55.7605 61.8026 55.8301 61.9901C55.8997 62.1776 56.0069 62.3288 56.1518 62.4439C56.2967 62.5589 56.4814 62.6165 56.7058 62.6165ZM57.2086 63.0682H57.0552V59.6847H57.2086C57.4302 59.6847 57.6319 59.7251 57.8137 59.8061C57.9956 59.8857 58.1518 60 58.2825 60.1491C58.4132 60.2983 58.514 60.4773 58.585 60.6861C58.6561 60.8935 58.6916 61.125 58.6916 61.3807C58.6916 61.6335 58.6561 61.8636 58.585 62.071C58.514 62.2784 58.4132 62.4567 58.2825 62.6058C58.1518 62.7536 57.9956 62.8679 57.8137 62.9489C57.6319 63.0284 57.4302 63.0682 57.2086 63.0682ZM57.2086 62.6165C57.3777 62.6165 57.5233 62.5838 57.6454 62.5185C57.769 62.4517 57.8706 62.3608 57.9501 62.2457C58.0311 62.1293 58.0907 61.9972 58.1291 61.8494C58.1689 61.7003 58.1887 61.544 58.1887 61.3807C58.1887 61.1619 58.1539 60.9581 58.0843 60.7692C58.0147 60.5803 57.9075 60.4276 57.7626 60.3111C57.6177 60.1946 57.4331 60.1364 57.2086 60.1364H57.1234V62.6165H57.2086ZM60.7898 63.0682C60.4943 63.0682 60.2351 62.9979 60.0121 62.8572C59.7905 62.7166 59.6172 62.5199 59.4922 62.267C59.3686 62.0142 59.3068 61.7187 59.3068 61.3807C59.3068 61.0398 59.3686 60.7422 59.4922 60.4879C59.6172 60.2337 59.7905 60.0362 60.0121 59.8956C60.2351 59.755 60.4943 59.6847 60.7898 59.6847C61.0852 59.6847 61.3438 59.755 61.5653 59.8956C61.7884 60.0362 61.9616 60.2337 62.0852 60.4879C62.2102 60.7422 62.2727 61.0398 62.2727 61.3807C62.2727 61.7187 62.2102 62.0142 62.0852 62.267C61.9616 62.5199 61.7884 62.7166 61.5653 62.8572C61.3438 62.9979 61.0852 63.0682 60.7898 63.0682ZM60.7898 62.6165C61.0142 62.6165 61.1989 62.5589 61.3438 62.4439C61.4886 62.3288 61.5959 62.1776 61.6655 61.9901C61.7351 61.8026 61.7699 61.5994 61.7699 61.3807C61.7699 61.1619 61.7351 60.9581 61.6655 60.7692C61.5959 60.5803 61.4886 60.4276 61.3438 60.3111C61.1989 60.1946 61.0142 60.1364 60.7898 60.1364C60.5653 60.1364 60.3807 60.1946 60.2358 60.3111C60.0909 60.4276 59.9837 60.5803 59.9141 60.7692C59.8445 60.9581 59.8097 61.1619 59.8097 61.3807C59.8097 61.5994 59.8445 61.8026 59.9141 61.9901C59.9837 62.1776 60.0909 62.3288 60.2358 62.4439C60.3807 62.5589 60.5653 62.6165 60.7898 62.6165ZM65.2306 61.1335V61.6023H63.4238V61.1335H65.2306ZM63.5431 59.7273V63H63.0403V59.7273H63.5431ZM65.6142 59.7273V63H65.1113V59.7273H65.6142ZM67.4956 63.0767C67.2882 63.0767 67.1 63.0376 66.9309 62.9595C66.7619 62.88 66.6277 62.7656 66.5282 62.6165C66.4288 62.4659 66.3791 62.2841 66.3791 62.071C66.3791 61.8835 66.416 61.7315 66.4899 61.6151C66.5637 61.4972 66.6625 61.4048 66.786 61.3381C66.9096 61.2713 67.046 61.2216 67.1951 61.1889C67.3457 61.1548 67.497 61.1278 67.649 61.108C67.8478 61.0824 68.0091 61.0632 68.1326 61.0504C68.2576 61.0362 68.3485 61.0128 68.4054 60.9801C68.4636 60.9474 68.4927 60.8906 68.4927 60.8097V60.7926C68.4927 60.5824 68.4352 60.419 68.3201 60.3026C68.2065 60.1861 68.0339 60.1278 67.8024 60.1278C67.5623 60.1278 67.3741 60.1804 67.2377 60.2855C67.1014 60.3906 67.0055 60.5028 66.9501 60.6222L66.4728 60.4517C66.5581 60.2528 66.6717 60.098 66.8137 59.9872C66.9572 59.875 67.1135 59.7969 67.2825 59.7528C67.4529 59.7074 67.6206 59.6847 67.7853 59.6847C67.8904 59.6847 68.0112 59.6974 68.1475 59.723C68.2853 59.7472 68.4181 59.7976 68.546 59.8743C68.6752 59.951 68.7825 60.0668 68.8677 60.2216C68.9529 60.3764 68.9956 60.5838 68.9956 60.8438V63H68.4927V62.5568H68.4672C68.4331 62.6278 68.3762 62.7038 68.2967 62.7848C68.2172 62.8658 68.1113 62.9347 67.9792 62.9915C67.8471 63.0483 67.6859 63.0767 67.4956 63.0767ZM67.5723 62.625C67.7711 62.625 67.9387 62.5859 68.0751 62.5078C68.2129 62.4297 68.3166 62.3288 68.3862 62.2053C68.4572 62.0817 68.4927 61.9517 68.4927 61.8153V61.3551C68.4714 61.3807 68.4245 61.4041 68.3521 61.4254C68.2811 61.4453 68.1987 61.4631 68.1049 61.4787C68.0126 61.4929 67.9224 61.5057 67.8343 61.517C67.7477 61.527 67.6774 61.5355 67.6234 61.5426C67.4927 61.5597 67.3706 61.5874 67.2569 61.6257C67.1447 61.6626 67.0538 61.7187 66.9842 61.794C66.916 61.8679 66.8819 61.9687 66.8819 62.0966C66.8819 62.2713 66.9466 62.4034 67.0758 62.4929C67.2065 62.581 67.372 62.625 67.5723 62.625Z" fill="#1E2631" fill-opacity="0.7"/>
<rect x="16" y="76" width="51" height="15" rx="4" fill="#24B88F" fill-opacity="0.4"/>
<path d="M26.2898 82.1051V81.6364H29.5625V82.1051H28.1903V86H27.6619V82.1051H26.2898ZM33.4121 86.0597C33.0911 86.0597 32.8176 85.9723 32.5918 85.7976C32.3659 85.6214 32.1934 85.3665 32.074 85.0327C31.9547 84.6974 31.8951 84.2926 31.8951 83.8182C31.8951 83.3466 31.9547 82.9439 32.074 82.6101C32.1948 82.2749 32.3681 82.0192 32.5939 81.843C32.8212 81.6655 33.0939 81.5767 33.4121 81.5767C33.7303 81.5767 34.0023 81.6655 34.2282 81.843C34.4554 82.0192 34.6287 82.2749 34.748 82.6101C34.8688 82.9439 34.9292 83.3466 34.9292 83.8182C34.9292 84.2926 34.8695 84.6974 34.7502 85.0327C34.6309 85.3665 34.4583 85.6214 34.2324 85.7976C34.0066 85.9723 33.7331 86.0597 33.4121 86.0597ZM33.4121 85.5909C33.7303 85.5909 33.9775 85.4375 34.1536 85.1307C34.3297 84.8239 34.4178 84.3864 34.4178 83.8182C34.4178 83.4403 34.3773 83.1186 34.2963 82.853C34.2168 82.5874 34.1017 82.3849 33.9512 82.2457C33.802 82.1065 33.6223 82.0369 33.4121 82.0369C33.0968 82.0369 32.8503 82.1925 32.6728 82.5036C32.4952 82.8132 32.4064 83.2514 32.4064 83.8182C32.4064 84.196 32.4462 84.517 32.5257 84.7812C32.6053 85.0455 32.7196 85.2464 32.8688 85.3842C33.0194 85.522 33.2005 85.5909 33.4121 85.5909ZM39.4973 84.6619V82.7273H40.0002V86H39.4973V85.446H39.4632C39.3865 85.6122 39.2672 85.7536 39.1053 85.87C38.9434 85.9851 38.7388 86.0426 38.4917 86.0426C38.2871 86.0426 38.1053 85.9979 37.9462 85.9084C37.7871 85.8175 37.6621 85.6811 37.5712 85.4993C37.4803 85.3161 37.4348 85.0852 37.4348 84.8068V82.7273H37.9377V84.7727C37.9377 85.0114 38.0044 85.2017 38.138 85.3438C38.2729 85.4858 38.4448 85.5568 38.6536 85.5568C38.7786 85.5568 38.9057 85.5249 39.035 85.4609C39.1657 85.397 39.275 85.299 39.3631 85.1669C39.4526 85.0348 39.4973 84.8665 39.4973 84.6619ZM43.1115 84.0312V86H42.6087V82.7273H43.0945V83.2386H43.1371C43.2138 83.0724 43.3303 82.9389 43.4865 82.8381C43.6428 82.7358 43.8445 82.6847 44.0916 82.6847C44.3132 82.6847 44.5071 82.7301 44.6733 82.821C44.8395 82.9105 44.9688 83.0469 45.0611 83.2301C45.1534 83.4119 45.1996 83.642 45.1996 83.9205V86H44.6967V83.9545C44.6967 83.6974 44.63 83.4972 44.4964 83.3537C44.3629 83.2088 44.1797 83.1364 43.9467 83.1364C43.7862 83.1364 43.6428 83.1712 43.5163 83.2408C43.3913 83.3104 43.2926 83.4119 43.2202 83.5455C43.1477 83.679 43.1115 83.8409 43.1115 84.0312ZM47.8741 86V81.6364H48.4025V83.8011H48.4537L50.4139 81.6364H51.1042L49.2718 83.6051L51.1042 86H50.465L48.948 83.9716L48.4025 84.5852V86H47.8741ZM53.4757 86V81.6364H54.0041V85.5312H56.0325V86H53.4757Z" fill="#1E2631"/>
<rect x="75.1" y="76.1" width="94.8" height="14.8" rx="3.9" stroke="#1E2631" stroke-opacity="0.2" stroke-width="0.2"/>
<path d="M79.7585 86.0597V85.5653H80.0312C80.1364 85.5653 80.2244 85.5447 80.2955 85.5036C80.3679 85.4624 80.4276 85.4091 80.4744 85.3438C80.5227 85.2784 80.5625 85.2102 80.5938 85.1392L80.6619 84.9773L79.1534 81.6364H79.7244L80.9261 84.3466L82.0256 81.6364H82.5881L81.0795 85.2926C81.0199 85.429 80.9517 85.5554 80.875 85.6719C80.7997 85.7884 80.6967 85.8821 80.5661 85.9531C80.4368 86.0241 80.2614 86.0597 80.0398 86.0597H79.7585ZM82.9641 86V82.7273H83.467V84.1506H83.7994L84.9755 82.7273H85.6232L84.3022 84.304L85.6403 86H84.9925L83.9187 84.6193H83.467V86H82.9641ZM87.1499 86.0767C86.9425 86.0767 86.7543 86.0376 86.5852 85.9595C86.4162 85.88 86.282 85.7656 86.1825 85.6165C86.0831 85.4659 86.0334 85.2841 86.0334 85.071C86.0334 84.8835 86.0703 84.7315 86.1442 84.6151C86.218 84.4972 86.3168 84.4048 86.4403 84.3381C86.5639 84.2713 86.7003 84.2216 86.8494 84.1889C87 84.1548 87.1513 84.1278 87.3033 84.108C87.5021 84.0824 87.6634 84.0632 87.7869 84.0504C87.9119 84.0362 88.0028 84.0128 88.0597 83.9801C88.1179 83.9474 88.147 83.8906 88.147 83.8097V83.7926C88.147 83.5824 88.0895 83.419 87.9744 83.3026C87.8608 83.1861 87.6882 83.1278 87.4567 83.1278C87.2166 83.1278 87.0284 83.1804 86.892 83.2855C86.7557 83.3906 86.6598 83.5028 86.6044 83.6222L86.1271 83.4517C86.2124 83.2528 86.326 83.098 86.468 82.9872C86.6115 82.875 86.7678 82.7969 86.9368 82.7528C87.1072 82.7074 87.2749 82.6847 87.4396 82.6847C87.5447 82.6847 87.6655 82.6974 87.8018 82.723C87.9396 82.7472 88.0724 82.7976 88.2003 82.8743C88.3295 82.951 88.4368 83.0668 88.522 83.2216C88.6072 83.3764 88.6499 83.5838 88.6499 83.8438V86H88.147V85.5568H88.1214C88.0874 85.6278 88.0305 85.7038 87.951 85.7848C87.8714 85.8658 87.7656 85.9347 87.6335 85.9915C87.5014 86.0483 87.3402 86.0767 87.1499 86.0767ZM87.2266 85.625C87.4254 85.625 87.593 85.5859 87.7294 85.5078C87.8672 85.4297 87.9709 85.3288 88.0405 85.2053C88.1115 85.0817 88.147 84.9517 88.147 84.8153V84.3551C88.1257 84.3807 88.0788 84.4041 88.0064 84.4254C87.9354 84.4453 87.853 84.4631 87.7592 84.4787C87.6669 84.4929 87.5767 84.5057 87.4886 84.517C87.402 84.527 87.3317 84.5355 87.2777 84.5426C87.147 84.5597 87.0249 84.5874 86.9112 84.6257C86.799 84.6626 86.7081 84.7187 86.6385 84.794C86.5703 84.8679 86.5362 84.9687 86.5362 85.0966C86.5362 85.2713 86.6009 85.4034 86.7301 85.4929C86.8608 85.581 87.0263 85.625 87.2266 85.625ZM89.3631 86L90.6926 84.3381L89.3801 82.7273H89.9767L91.0676 84.125H91.3404V82.7273H91.8432V84.125H92.1074L93.1983 82.7273H93.7949L92.4909 84.3381L93.812 86H93.2069L92.0989 84.5938H91.8432V86H91.3404V84.5938H91.0847L89.9682 86H89.3631ZM95.0334 85.2585L96.6101 82.7273H97.1896V86H96.6868V83.4688L95.1186 86H94.5305V82.7273H95.0334V85.2585ZM97.6653 83.196V82.7273H100.324V83.196H99.2505V86H98.7477V83.196H97.6653ZM102.26 86.0682C101.945 86.0682 101.673 85.9986 101.444 85.8594C101.217 85.7188 101.041 85.5227 100.918 85.2713C100.796 85.0185 100.735 84.7244 100.735 84.3892C100.735 84.054 100.796 83.7585 100.918 83.5028C101.041 83.2457 101.213 83.0455 101.433 82.902C101.655 82.7571 101.914 82.6847 102.209 82.6847C102.379 82.6847 102.548 82.7131 102.714 82.7699C102.88 82.8267 103.031 82.919 103.168 83.0469C103.304 83.1733 103.413 83.3409 103.494 83.5497C103.575 83.7585 103.615 84.0156 103.615 84.321V84.5341H101.093V84.0994H103.104C103.104 83.9148 103.067 83.75 102.993 83.6051C102.921 83.4602 102.817 83.3459 102.682 83.2621C102.548 83.1783 102.391 83.1364 102.209 83.1364C102.009 83.1364 101.835 83.1861 101.689 83.2855C101.544 83.3835 101.433 83.5114 101.355 83.669C101.276 83.8267 101.237 83.9957 101.237 84.1761V84.4659C101.237 84.7131 101.28 84.9226 101.365 85.0945C101.452 85.2649 101.572 85.3949 101.725 85.4844C101.879 85.5724 102.057 85.6165 102.26 85.6165C102.392 85.6165 102.512 85.598 102.618 85.5611C102.726 85.5227 102.819 85.4659 102.897 85.3906C102.975 85.3139 103.036 85.2187 103.078 85.1051L103.564 85.2415C103.513 85.4062 103.427 85.5511 103.306 85.6761C103.186 85.7997 103.036 85.8963 102.859 85.9659C102.681 86.0341 102.482 86.0682 102.26 86.0682ZM106.068 86V82.7273H106.57V84.1506H106.903L108.079 82.7273H108.727L107.406 84.304L108.744 86H108.096L107.022 84.6193H106.57V86H106.068ZM110.485 86.0682C110.19 86.0682 109.93 85.9979 109.707 85.8572C109.486 85.7166 109.312 85.5199 109.188 85.267C109.064 85.0142 109.002 84.7187 109.002 84.3807C109.002 84.0398 109.064 83.7422 109.188 83.4879C109.312 83.2337 109.486 83.0362 109.707 82.8956C109.93 82.755 110.19 82.6847 110.485 82.6847C110.781 82.6847 111.039 82.755 111.261 82.8956C111.484 83.0362 111.657 83.2337 111.781 83.4879C111.906 83.7422 111.968 84.0398 111.968 84.3807C111.968 84.7187 111.906 85.0142 111.781 85.267C111.657 85.5199 111.484 85.7166 111.261 85.8572C111.039 85.9979 110.781 86.0682 110.485 86.0682ZM110.485 85.6165C110.71 85.6165 110.894 85.5589 111.039 85.4439C111.184 85.3288 111.291 85.1776 111.361 84.9901C111.43 84.8026 111.465 84.5994 111.465 84.3807C111.465 84.1619 111.43 83.9581 111.361 83.7692C111.291 83.5803 111.184 83.4276 111.039 83.3111C110.894 83.1946 110.71 83.1364 110.485 83.1364C110.261 83.1364 110.076 83.1946 109.931 83.3111C109.786 83.4276 109.679 83.5803 109.609 83.7692C109.54 83.9581 109.505 84.1619 109.505 84.3807C109.505 84.5994 109.54 84.8026 109.609 84.9901C109.679 85.1776 109.786 85.3288 109.931 85.4439C110.076 85.5589 110.261 85.6165 110.485 85.6165ZM112.386 86.9375V85.5312H112.659C112.726 85.4616 112.783 85.3864 112.831 85.3054C112.88 85.2244 112.922 85.1286 112.957 85.0178C112.994 84.9055 113.025 84.7692 113.051 84.6087C113.077 84.4467 113.099 84.2514 113.119 84.0227L113.23 82.7273H115.309V85.5312H115.812V86.9375H115.309V86H112.889V86.9375H112.386ZM113.23 85.5312H114.807V83.196H113.699L113.613 84.0227C113.578 84.3651 113.534 84.6641 113.481 84.9197C113.429 85.1754 113.345 85.3793 113.23 85.5312Z" fill="#1E2631" fill-opacity="0.7"/>
<rect x="16" y="101" width="156" height="20" rx="10" fill="#159A75"/>
<path d="M76.0391 108.909V114H75.2734V109.565H72.8771V114H72.1115V108.909H76.0391ZM77.1539 115.432V110.182H77.8798V110.801H77.9419C77.985 110.721 78.0472 110.629 78.1284 110.525C78.2096 110.42 78.3223 110.329 78.4664 110.251C78.6106 110.172 78.8012 110.132 79.0382 110.132C79.3464 110.132 79.6215 110.21 79.8635 110.366C80.1054 110.522 80.2952 110.746 80.4327 111.039C80.5719 111.333 80.6415 111.686 80.6415 112.098C80.6415 112.511 80.5727 112.865 80.4352 113.16C80.2976 113.453 80.1087 113.679 79.8684 113.838C79.6281 113.996 79.3539 114.075 79.0456 114.075C78.8136 114.075 78.6239 114.036 78.4764 113.958C78.3306 113.88 78.2162 113.789 78.1333 113.684C78.0505 113.58 77.9867 113.487 77.9419 113.406H77.8972V115.432H77.1539ZM77.8823 112.091C77.8823 112.359 77.9212 112.595 77.9991 112.797C78.077 112.999 78.1897 113.157 78.3372 113.272C78.4847 113.384 78.6653 113.441 78.8791 113.441C79.1011 113.441 79.2868 113.382 79.4359 113.264C79.585 113.145 79.6977 112.983 79.774 112.779C79.8519 112.576 79.8908 112.346 79.8908 112.091C79.8908 111.839 79.8527 111.613 79.7765 111.412C79.7019 111.212 79.5892 111.054 79.4384 110.938C79.2892 110.821 79.1028 110.763 78.8791 110.763C78.6636 110.763 78.4814 110.819 78.3322 110.93C78.1847 111.041 78.0729 111.196 77.9966 111.395C77.9204 111.594 77.8823 111.826 77.8823 112.091ZM83.0826 114.077C82.7246 114.077 82.4122 113.995 82.1454 113.831C81.8786 113.667 81.6715 113.437 81.524 113.142C81.3765 112.847 81.3027 112.503 81.3027 112.108C81.3027 111.712 81.3765 111.366 81.524 111.069C81.6715 110.773 81.8786 110.542 82.1454 110.378C82.4122 110.214 82.7246 110.132 83.0826 110.132C83.4405 110.132 83.7529 110.214 84.0197 110.378C84.2865 110.542 84.4937 110.773 84.6412 111.069C84.7886 111.366 84.8624 111.712 84.8624 112.108C84.8624 112.503 84.7886 112.847 84.6412 113.142C84.4937 113.437 84.2865 113.667 84.0197 113.831C83.7529 113.995 83.4405 114.077 83.0826 114.077ZM83.085 113.453C83.3171 113.453 83.5093 113.392 83.6618 113.269C83.8142 113.147 83.9269 112.983 83.9998 112.779C84.0744 112.576 84.1117 112.351 84.1117 112.106C84.1117 111.862 84.0744 111.638 83.9998 111.435C83.9269 111.229 83.8142 111.064 83.6618 110.94C83.5093 110.816 83.3171 110.754 83.085 110.754C82.8514 110.754 82.6575 110.816 82.5034 110.94C82.3509 111.064 82.2374 111.229 82.1628 111.435C82.0899 111.638 82.0534 111.862 82.0534 112.106C82.0534 112.351 82.0899 112.576 82.1628 112.779C82.2374 112.983 82.3509 113.147 82.5034 113.269C82.6575 113.392 82.8514 113.453 83.085 113.453ZM85.3192 115.101V113.356H85.6299C85.7094 113.283 85.7765 113.196 85.8312 113.095C85.8876 112.994 85.9348 112.874 85.9729 112.735C86.0127 112.596 86.0458 112.433 86.0724 112.248C86.0989 112.06 86.1221 111.846 86.142 111.606L86.2613 110.182H88.8564V113.356H89.4431V115.101H88.7172V114H86.055V115.101H85.3192ZM86.4253 113.356H88.1306V110.818H86.9275L86.8479 111.606C86.8098 112.007 86.7617 112.355 86.7037 112.65C86.6457 112.944 86.5529 113.179 86.4253 113.356ZM91.7779 114.077C91.4199 114.077 91.1075 113.995 90.8407 113.831C90.5739 113.667 90.3668 113.437 90.2193 113.142C90.0718 112.847 89.998 112.503 89.998 112.108C89.998 111.712 90.0718 111.366 90.2193 111.069C90.3668 110.773 90.5739 110.542 90.8407 110.378C91.1075 110.214 91.4199 110.132 91.7779 110.132C92.1358 110.132 92.4482 110.214 92.715 110.378C92.9818 110.542 93.189 110.773 93.3365 111.069C93.484 111.366 93.5577 111.712 93.5577 112.108C93.5577 112.503 93.484 112.847 93.3365 113.142C93.189 113.437 92.9818 113.667 92.715 113.831C92.4482 113.995 92.1358 114.077 91.7779 114.077ZM91.7804 113.453C92.0124 113.453 92.2046 113.392 92.3571 113.269C92.5095 113.147 92.6222 112.983 92.6951 112.779C92.7697 112.576 92.807 112.351 92.807 112.106C92.807 111.862 92.7697 111.638 92.6951 111.435C92.6222 111.229 92.5095 111.064 92.3571 110.94C92.2046 110.816 92.0124 110.754 91.7804 110.754C91.5467 110.754 91.3528 110.816 91.1987 110.94C91.0462 111.064 90.9327 111.229 90.8581 111.435C90.7852 111.638 90.7488 111.862 90.7488 112.106C90.7488 112.351 90.7852 112.576 90.8581 112.779C90.9327 112.983 91.0462 113.147 91.1987 113.269C91.3528 113.392 91.5467 113.453 91.7804 113.453ZM94.0866 114L94.0841 113.356H94.2208C94.3269 113.356 94.4155 113.334 94.4868 113.289C94.5597 113.243 94.6193 113.165 94.6657 113.055C94.7122 112.946 94.7478 112.795 94.7726 112.603C94.7975 112.409 94.8157 112.165 94.8273 111.872L94.8944 110.182H97.5592V114H96.8309V110.823H95.583L95.5233 112.121C95.5084 112.436 95.4761 112.711 95.4264 112.946C95.3783 113.181 95.3079 113.378 95.2151 113.535C95.1223 113.691 95.003 113.808 94.8572 113.886C94.7113 113.962 94.534 114 94.3252 114H94.0866ZM98.3068 114L99.7859 112.046L98.3242 110.182H99.1893L100.37 111.768H100.636V110.182H101.379V111.768H101.638L102.819 110.182H103.684L102.229 112.046L103.701 114H102.819L101.628 112.409H101.379V114H100.636V112.409H100.387L99.1893 114H98.3068ZM105.185 112.958L106.868 110.182H107.668V114H106.94V111.221L105.265 114H104.457V110.182H105.185V112.958ZM108.194 110.823V110.182H111.416V110.823H110.17V114H109.444V110.823H108.194ZM112.761 111.494H113.87C114.337 111.494 114.697 111.61 114.949 111.842C115.2 112.074 115.326 112.373 115.326 112.74C115.326 112.978 115.27 113.193 115.157 113.384C115.045 113.574 114.88 113.725 114.663 113.836C114.446 113.945 114.181 114 113.87 114H112.202V110.182H112.93V113.359H113.87C114.084 113.359 114.259 113.303 114.397 113.192C114.534 113.079 114.603 112.936 114.603 112.762C114.603 112.578 114.534 112.428 114.397 112.312C114.259 112.194 114.084 112.136 113.87 112.136H112.761V111.494Z" fill="#E8F2F3"/>
</g>
<defs>
<filter id="filter0_d_217_86" x="0" y="0" width="196" height="145" filterUnits="userSpaceOnUse" color-interpolation-filters="sRGB">
<feFlood flood-opacity="0" result="BackgroundImageFix"/>
<feColorMatrix in="SourceAlpha" type="matrix" values="0 0 0 0 0 0 0 0 0 0 0 0 0 0 0 0 0 0 127 0" result="hardAlpha"/>
<feOffset dx="4" dy="4"/>
<feGaussianBlur stdDeviation="5"/>
<feComposite in2="hardAlpha" operator="out"/>
<feColorMatrix type="matrix" values="0 0 0 0 0.401362 0 0 0 0 0.580957 0 0 0 0 0.598916 0 0 0 0.2 0"/>
<feBlend mode="normal" in2="BackgroundImageFix" result="effect1_dropShadow_217_86"/>
<feBlend mode="normal" in="SourceGraphic" in2="effect1_dropShadow_217_86" result="shape"/>
</filter>
</defs>
</svg>
