<svg width="266" height="105" viewBox="0 0 266 105" fill="none" xmlns="http://www.w3.org/2000/svg">
<rect y="22" width="260" height="58" rx="14" fill="#CDDFDD"/>
<path d="M47.1719 44.9091V58H45.2031V46.5966H39.0412V58H37.0724V44.9091H47.1719ZM54.1744 58.1982C53.2539 58.1982 52.4506 57.9872 51.7646 57.5653C51.0785 57.1435 50.5458 56.5533 50.1665 55.7947C49.7873 55.0362 49.5977 54.1499 49.5977 53.1357C49.5977 52.1172 49.7873 51.2266 50.1665 50.4638C50.5458 49.701 51.0785 49.1087 51.7646 48.6868C52.4506 48.2649 53.2539 48.054 54.1744 48.054C55.0948 48.054 55.8981 48.2649 56.5842 48.6868C57.2702 49.1087 57.8029 49.701 58.1822 50.4638C58.5614 51.2266 58.7511 52.1172 58.7511 53.1357C58.7511 54.1499 58.5614 55.0362 58.1822 55.7947C57.8029 56.5533 57.2702 57.1435 56.5842 57.5653C55.8981 57.9872 55.0948 58.1982 54.1744 58.1982ZM54.1808 56.5938C54.7773 56.5938 55.2717 56.4361 55.6637 56.1207C56.0558 55.8054 56.3455 55.3857 56.533 54.8615C56.7248 54.3374 56.8207 53.7599 56.8207 53.1293C56.8207 52.5028 56.7248 51.9276 56.533 51.4034C56.3455 50.875 56.0558 50.451 55.6637 50.1314C55.2717 49.8118 54.7773 49.652 54.1808 49.652C53.5799 49.652 53.0813 49.8118 52.685 50.1314C52.293 50.451 52.0011 50.875 51.8093 51.4034C51.6218 51.9276 51.5281 52.5028 51.5281 53.1293C51.5281 53.7599 51.6218 54.3374 51.8093 54.8615C52.0011 55.3857 52.293 55.8054 52.685 56.1207C53.0813 56.4361 53.5799 56.5938 54.1808 56.5938ZM59.9256 60.8317V56.3445H60.7246C60.9292 56.157 61.1017 55.9332 61.2424 55.6733C61.3873 55.4134 61.5087 55.1044 61.6067 54.7464C61.709 54.3885 61.7942 53.9709 61.8624 53.4936C61.9306 53.0121 61.9902 52.4624 62.0414 51.8445L62.3482 48.1818H69.0215V56.3445H70.53V60.8317H68.6635V58H61.8176V60.8317H59.9256ZM62.7701 56.3445H67.155V49.8182H64.0613L63.8567 51.8445C63.7587 52.8757 63.6351 53.7706 63.486 54.5291C63.3368 55.2834 63.0982 55.8885 62.7701 56.3445ZM72.3981 58V48.1818H74.3093V52.2983H75.2298L78.4705 48.1818H80.8356L77.0323 52.9567L80.8803 58H78.5089L75.5494 54.0753H74.3093V58H72.3981ZM81.5914 58L81.585 56.3445H81.9366C82.2093 56.3445 82.4373 56.2869 82.6206 56.1719C82.8081 56.0526 82.9615 55.8523 83.0808 55.571C83.2001 55.2898 83.2917 54.902 83.3556 54.4077C83.4196 53.9091 83.4664 53.2827 83.4963 52.5284L83.6689 48.1818H90.5211V58H88.6483V49.831H85.4395L85.286 53.1676C85.2477 53.9773 85.1646 54.6847 85.0368 55.2898C84.9132 55.8949 84.7321 56.3999 84.4934 56.8047C84.2548 57.2053 83.948 57.5057 83.573 57.706C83.198 57.902 82.742 58 82.2051 58H81.5914ZM98.011 52.3366V53.9986H92.7759V52.3366H98.011ZM94.3292 48.1818V58H92.418V48.1818H94.3292ZM101.002 58.1982C100.091 58.1982 99.2937 57.9851 98.6119 57.5589C97.93 57.1328 97.4016 56.5405 97.0266 55.782C96.6516 55.0192 96.4641 54.1349 96.4641 53.1293C96.4641 52.1151 96.6516 51.2287 97.0266 50.4702C97.4016 49.7074 97.93 49.1151 98.6119 48.6932C99.2937 48.267 100.091 48.054 101.002 48.054C101.919 48.054 102.716 48.267 103.393 48.6932C104.075 49.1151 104.603 49.7074 104.978 50.4702C105.358 51.2287 105.547 52.1151 105.547 53.1293C105.547 54.1349 105.358 55.0192 104.978 55.782C104.603 56.5405 104.075 57.1328 103.393 57.5589C102.716 57.9851 101.919 58.1982 101.002 58.1982ZM101.002 56.5618C101.62 56.5618 102.125 56.4062 102.517 56.0952C102.914 55.7798 103.206 55.3622 103.393 54.8423C103.581 54.3224 103.674 53.7514 103.674 53.1293C103.674 52.5028 103.581 51.9297 103.393 51.4098C103.206 50.8857 102.914 50.4659 102.517 50.1506C102.125 49.8352 101.62 49.6776 101.002 49.6776C100.389 49.6776 99.8839 49.8352 99.4876 50.1506C99.0913 50.4659 98.7994 50.8857 98.6119 51.4098C98.4244 51.9297 98.3306 52.5028 98.3306 53.1293C98.3306 53.7514 98.4244 54.3224 98.6119 54.8423C98.7994 55.3622 99.0913 55.7798 99.4876 56.0952C99.8839 56.4062 100.389 56.5618 101.002 56.5618ZM115.682 48.1818V58H113.815V48.1818H115.682ZM114.87 52.7393V54.3885C114.576 54.5078 114.265 54.6143 113.937 54.7081C113.609 54.7976 113.263 54.8679 112.901 54.919C112.539 54.9702 112.162 54.9957 111.77 54.9957C110.555 54.9957 109.59 54.6996 108.874 54.1072C108.158 53.5107 107.8 52.5987 107.8 51.3714V48.1626H109.661V51.3714C109.661 51.8359 109.746 52.2131 109.916 52.5028C110.087 52.7926 110.33 53.0057 110.645 53.142C110.96 53.2784 111.335 53.3466 111.77 53.3466C112.345 53.3466 112.876 53.2933 113.362 53.1868C113.852 53.076 114.354 52.9268 114.87 52.7393ZM120.097 55.3217L124.425 48.1818H126.483V58H124.61V50.8537L120.302 58H118.224V48.1818H120.097V55.3217ZM127.835 49.831V48.1818H136.119V49.831H132.916V58H131.05V49.831H127.835ZM139.578 51.5568H142.429C143.631 51.5568 144.556 51.8551 145.203 52.4517C145.851 53.0483 146.175 53.8175 146.175 54.7592C146.175 55.3729 146.03 55.9247 145.74 56.4148C145.451 56.9048 145.027 57.2926 144.468 57.5781C143.91 57.8594 143.23 58 142.429 58H138.14V48.1818H140.013V56.3509H142.429C142.979 56.3509 143.431 56.2081 143.784 55.9226C144.138 55.6328 144.315 55.2642 144.315 54.8168C144.315 54.3437 144.138 53.9581 143.784 53.6598C143.431 53.3572 142.979 53.206 142.429 53.206H139.578V51.5568ZM158.592 55.6349L161.762 48.1818H163.411L159.301 58H157.882L153.855 48.1818H155.485L158.592 55.6349ZM154.955 48.1818V58H153.082V48.1818H154.955ZM162.28 58V48.1818H164.14V58H162.28ZM169.544 58.2173C168.922 58.2173 168.36 58.1023 167.857 57.8722C167.354 57.6378 166.956 57.299 166.662 56.8558C166.372 56.4126 166.227 55.8693 166.227 55.2259C166.227 54.6719 166.333 54.2159 166.547 53.858C166.76 53.5 167.047 53.2166 167.409 53.0078C167.772 52.799 168.176 52.6413 168.624 52.5348C169.071 52.4283 169.527 52.3473 169.992 52.2919C170.58 52.2237 171.057 52.1683 171.424 52.1257C171.79 52.0788 172.056 52.0043 172.223 51.902C172.389 51.7997 172.472 51.6335 172.472 51.4034V51.3587C172.472 50.8004 172.314 50.3679 171.999 50.0611C171.688 49.7543 171.223 49.6009 170.605 49.6009C169.962 49.6009 169.455 49.7436 169.084 50.0291C168.718 50.3104 168.464 50.6236 168.324 50.9688L166.527 50.5597C166.74 49.9631 167.051 49.4815 167.461 49.1151C167.874 48.7443 168.349 48.4759 168.886 48.3097C169.423 48.1392 169.988 48.054 170.58 48.054C170.972 48.054 171.387 48.1009 171.826 48.1946C172.27 48.2841 172.683 48.4503 173.066 48.6932C173.454 48.9361 173.772 49.2834 174.019 49.7351C174.266 50.1825 174.39 50.7642 174.39 51.4801V58H172.523V56.6577H172.446C172.323 56.9048 172.137 57.1477 171.89 57.3864C171.643 57.625 171.326 57.8232 170.938 57.9808C170.55 58.1385 170.086 58.2173 169.544 58.2173ZM169.96 56.6832C170.488 56.6832 170.94 56.5788 171.315 56.37C171.694 56.1612 171.982 55.8885 172.178 55.5518C172.378 55.2109 172.478 54.8466 172.478 54.4588V53.1932C172.41 53.2614 172.278 53.3253 172.082 53.3849C171.89 53.4403 171.671 53.4893 171.424 53.532C171.176 53.5703 170.936 53.6065 170.701 53.6406C170.467 53.6705 170.271 53.696 170.113 53.7173C169.743 53.7642 169.404 53.843 169.097 53.9538C168.794 54.0646 168.551 54.2244 168.368 54.4332C168.189 54.6378 168.1 54.9105 168.1 55.2514C168.1 55.7244 168.275 56.0824 168.624 56.3253C168.973 56.5639 169.419 56.6832 169.96 56.6832ZM183.212 48.1818V49.831H178.821V58H176.935V48.1818H183.212ZM187.632 58.2173C187.01 58.2173 186.448 58.1023 185.945 57.8722C185.442 57.6378 185.044 57.299 184.749 56.8558C184.46 56.4126 184.315 55.8693 184.315 55.2259C184.315 54.6719 184.421 54.2159 184.634 53.858C184.847 53.5 185.135 53.2166 185.497 53.0078C185.86 52.799 186.264 52.6413 186.712 52.5348C187.159 52.4283 187.615 52.3473 188.08 52.2919C188.668 52.2237 189.145 52.1683 189.512 52.1257C189.878 52.0788 190.144 52.0043 190.311 51.902C190.477 51.7997 190.56 51.6335 190.56 51.4034V51.3587C190.56 50.8004 190.402 50.3679 190.087 50.0611C189.776 49.7543 189.311 49.6009 188.693 49.6009C188.05 49.6009 187.543 49.7436 187.172 50.0291C186.806 50.3104 186.552 50.6236 186.411 50.9688L184.615 50.5597C184.828 49.9631 185.139 49.4815 185.548 49.1151C185.962 48.7443 186.437 48.4759 186.974 48.3097C187.511 48.1392 188.075 48.054 188.668 48.054C189.06 48.054 189.475 48.1009 189.914 48.1946C190.357 48.2841 190.771 48.4503 191.154 48.6932C191.542 48.9361 191.86 49.2834 192.107 49.7351C192.354 50.1825 192.477 50.7642 192.477 51.4801V58H190.611V56.6577H190.534C190.411 56.9048 190.225 57.1477 189.978 57.3864C189.731 57.625 189.414 57.8232 189.026 57.9808C188.638 58.1385 188.173 58.2173 187.632 58.2173ZM188.048 56.6832C188.576 56.6832 189.028 56.5788 189.403 56.37C189.782 56.1612 190.07 55.8885 190.266 55.5518C190.466 55.2109 190.566 54.8466 190.566 54.4588V53.1932C190.498 53.2614 190.366 53.3253 190.17 53.3849C189.978 53.4403 189.759 53.4893 189.512 53.532C189.264 53.5703 189.024 53.6065 188.789 53.6406C188.555 53.6705 188.359 53.696 188.201 53.7173C187.83 53.7642 187.492 53.843 187.185 53.9538C186.882 54.0646 186.639 54.2244 186.456 54.4332C186.277 54.6378 186.188 54.9105 186.188 55.2514C186.188 55.7244 186.362 56.0824 186.712 56.3253C187.061 56.5639 187.507 56.6832 188.048 56.6832ZM194.441 55.4048H196.397C196.423 55.8054 196.604 56.1143 196.941 56.3317C197.282 56.549 197.723 56.6577 198.264 56.6577C198.814 56.6577 199.282 56.5405 199.67 56.3061C200.058 56.0675 200.252 55.6989 200.252 55.2003C200.252 54.902 200.177 54.642 200.028 54.4205C199.883 54.1946 199.676 54.0199 199.408 53.8963C199.144 53.7727 198.831 53.7109 198.468 53.7109H196.87V52.2088H198.468C199.01 52.2088 199.414 52.0852 199.683 51.8381C199.951 51.5909 200.086 51.282 200.086 50.9112C200.086 50.5107 199.941 50.1889 199.651 49.946C199.365 49.6989 198.967 49.5753 198.456 49.5753C197.936 49.5753 197.503 49.6925 197.158 49.9268C196.813 50.157 196.632 50.4553 196.615 50.8217H194.684C194.697 50.272 194.863 49.7905 195.183 49.3771C195.507 48.9595 195.941 48.6357 196.487 48.4055C197.037 48.1712 197.661 48.054 198.36 48.054C199.088 48.054 199.719 48.1712 200.252 48.4055C200.784 48.6399 201.196 48.9638 201.485 49.3771C201.779 49.7905 201.926 50.2656 201.926 50.8026C201.926 51.3437 201.765 51.7869 201.441 52.1321C201.121 52.473 200.703 52.718 200.188 52.8672V52.9695C200.567 52.995 200.904 53.1101 201.198 53.3146C201.492 53.5192 201.722 53.7898 201.888 54.1264C202.054 54.4631 202.137 54.8445 202.137 55.2706C202.137 55.8714 201.971 56.3913 201.639 56.8303C201.311 57.2692 200.855 57.608 200.271 57.8466C199.691 58.081 199.029 58.1982 198.283 58.1982C197.559 58.1982 196.909 58.0852 196.333 57.8594C195.762 57.6293 195.309 57.3054 194.972 56.8878C194.64 56.4702 194.463 55.9759 194.441 55.4048ZM205.984 55.3217L210.311 48.1818H212.369V58H210.497V50.8537L206.188 58H204.111V48.1818H205.984V55.3217ZM221.593 52.2663V53.9219H216.275V52.2663H221.593ZM216.812 48.1818V58H214.939V48.1818H216.812ZM222.929 48.1818V58H221.063V48.1818H222.929Z" fill="#13212F"/>
<path d="M22.4197 2.21126C22.5763 1.61434 23.4237 1.61434 23.5803 2.21126L24.6353 6.23082C25.5515 9.72198 28.278 12.4485 31.7692 13.3647L35.7887 14.4197C36.3857 14.5763 36.3857 15.4237 35.7887 15.5803L31.7692 16.6353C28.278 17.5515 25.5515 20.278 24.6353 23.7692L23.5803 27.7887C23.4237 28.3857 22.5763 28.3857 22.4197 27.7887L21.3647 23.7692C20.4485 20.278 17.722 17.5515 14.2308 16.6353L10.2113 15.5803C9.61434 15.4237 9.61434 14.5763 10.2113 14.4197L14.2308 13.3647C17.722 12.4485 20.4485 9.72198 21.3647 6.23082L22.4197 2.21126Z" fill="#159A75"/>
<path d="M212.92 70.2113C213.076 69.6143 213.924 69.6143 214.08 70.2113L215.863 77.0032C216.779 80.4944 219.506 83.2209 222.997 84.1371L229.789 85.9197C230.386 86.0763 230.386 86.9237 229.789 87.0803L222.997 88.8629C219.506 89.7791 216.779 92.5056 215.863 95.9968L214.08 102.789C213.924 103.386 213.076 103.386 212.92 102.789L211.137 95.9968C210.221 92.5056 207.494 89.7791 204.003 88.8629L197.211 87.0803C196.614 86.9237 196.614 86.0763 197.211 85.9197L204.003 84.1371C207.494 83.2209 210.221 80.4944 211.137 77.0032L212.92 70.2113Z" fill="#159A75"/>
<path d="M253.42 7.21126C253.576 6.61434 254.424 6.61434 254.58 7.21126L255.753 11.6799C256.211 13.4255 257.575 14.7887 259.32 15.2469L263.789 16.4197C264.386 16.5763 264.386 17.4237 263.789 17.5803L259.32 18.7531C257.575 19.2113 256.211 20.5745 255.753 22.3201L254.58 26.7887C254.424 27.3857 253.576 27.3857 253.42 26.7887L252.247 22.3201C251.789 20.5745 250.425 19.2113 248.68 18.7531L244.211 17.5803C243.614 17.4237 243.614 16.5763 244.211 16.4197L248.68 15.2469C250.425 14.7887 251.789 13.4255 252.247 11.6799L253.42 7.21126Z" fill="#159A75"/>
</svg>
