<svg width="195" height="52" viewBox="0 0 195 52" fill="none" xmlns="http://www.w3.org/2000/svg">
<path d="M67.1576 13.2706C67.1814 13.0566 67.2527 12.8902 67.3952 12.7476C67.5377 12.605 67.7278 12.5337 67.9653 12.5337H73.8805C74.3081 12.5337 74.5694 12.7476 74.6882 13.1755L79.3443 28.6976L84.0242 13.1755C84.1905 12.7476 84.4756 12.5337 84.9032 12.5337H90.7471C90.9609 12.5337 91.1272 12.605 91.2935 12.7476C91.4598 12.8902 91.5548 13.0804 91.5786 13.2943C91.9824 17.3115 92.3863 21.2812 92.7901 25.2271C93.194 29.173 93.6216 33.1664 94.0017 37.1599V37.2549C94.0017 37.7066 93.7641 37.9205 93.2415 37.9205H88.4191C87.8964 37.9205 87.6114 37.659 87.5876 37.1599L86.091 23.9435L82.2426 37.2549C82.2188 37.3738 82.1475 37.5164 82.005 37.659C81.8625 37.8254 81.7199 37.8968 81.5774 37.8968H77.0875C76.945 37.8968 76.8025 37.8254 76.6599 37.659C76.4937 37.4927 76.4224 37.3738 76.4224 37.2312L72.5739 23.9673L71.0773 37.1361C71.0536 37.6353 70.7685 37.8968 70.2459 37.8968H65.3997C64.9008 37.8968 64.6633 37.6353 64.6633 37.1361L67.1576 13.2706Z" fill="#E8F2F3"/>
<path d="M117.995 37.6353C117.852 37.7541 117.686 37.8492 117.52 37.873C117.354 37.8967 117.187 37.9205 117.045 37.9205H114.455C114.242 37.9205 114.075 37.873 113.933 37.8017C113.79 37.7304 113.648 37.6353 113.553 37.4926C113.458 37.3738 113.363 37.2312 113.291 37.0648C113.22 36.8984 113.173 36.732 113.125 36.5656L112.769 34.9017C112.602 35.2582 112.317 35.6148 111.914 36.0189C111.51 36.423 111.011 36.7795 110.441 37.1123C109.847 37.4451 109.182 37.7066 108.421 37.9205C107.661 38.1345 106.83 38.2533 105.927 38.2533C104.62 38.2533 103.48 37.9918 102.482 37.4926C101.485 36.9935 100.63 36.3041 99.9406 35.4484C99.2517 34.5927 98.7291 33.5705 98.3727 32.4058C98.0164 31.241 97.8501 30.005 97.8501 28.6976V17.5255C97.8501 17.0976 97.9451 16.7648 98.1352 16.5509C98.3252 16.337 98.634 16.2181 99.0379 16.2181H102.981C103.48 16.2181 103.813 16.2894 103.979 16.4558C104.169 16.6222 104.264 16.955 104.264 17.4304V28.5787C104.264 29.0779 104.359 29.5295 104.549 29.9812C104.739 30.4091 105.001 30.8132 105.309 31.1459C105.618 31.4787 105.998 31.7402 106.426 31.9304C106.854 32.1205 107.305 32.2156 107.78 32.2156C108.184 32.2156 108.635 32.1443 109.11 32.0017C109.585 31.8591 110.037 31.6451 110.441 31.3599C110.845 31.0746 111.201 30.6943 111.462 30.2427C111.747 29.791 111.866 29.2443 111.866 28.6025V17.4779C111.866 17.2878 111.914 17.0976 111.985 16.8837C112.056 16.6935 112.175 16.5509 112.317 16.432C112.46 16.337 112.602 16.2894 112.745 16.2419C112.864 16.2181 113.03 16.1943 113.196 16.1943H117.045C117.544 16.1943 117.876 16.3132 118.114 16.5509C118.328 16.7886 118.446 17.1214 118.446 17.5017V36.6369C118.446 36.8508 118.399 37.041 118.304 37.2312C118.209 37.4213 118.066 37.564 117.9 37.659L117.995 37.6353Z" fill="#E8F2F3"/>
<path d="M122.984 16.5038C123.126 16.3849 123.293 16.2898 123.459 16.2661C123.625 16.2423 123.768 16.2185 123.934 16.2185H126.523C126.737 16.2185 126.903 16.2661 127.046 16.3374C127.189 16.4087 127.331 16.5038 127.426 16.6464C127.521 16.7652 127.616 16.9079 127.664 17.0743C127.735 17.2407 127.782 17.4071 127.854 17.5734L128.21 19.071C128.376 18.7144 128.661 18.3579 129.041 17.9775C129.422 17.5972 129.897 17.2644 130.467 16.9554C131.037 16.6464 131.678 16.3849 132.415 16.1948C133.151 16.0046 133.983 15.8857 134.885 15.8857C136.192 15.8857 137.332 16.1234 138.354 16.6226C139.375 17.1218 140.23 17.8111 140.943 18.6669C141.656 19.5226 142.202 20.5447 142.559 21.6857C142.939 22.8505 143.105 24.0628 143.105 25.3939V36.5898C143.105 37.0177 143.01 37.3505 142.82 37.5644C142.63 37.7783 142.345 37.8972 141.917 37.8972H137.974C137.475 37.8972 137.142 37.8259 136.976 37.6595C136.786 37.4931 136.715 37.1603 136.715 36.6849V25.5603C136.715 25.0611 136.596 24.6095 136.382 24.1579C136.168 23.73 135.859 23.3259 135.503 22.9931C135.147 22.6603 134.719 22.3988 134.268 22.2087C133.816 22.0185 133.341 21.9234 132.866 21.9234C132.462 21.9234 132.035 22.0185 131.607 22.2087C131.179 22.3988 130.799 22.6365 130.419 22.9693C130.063 23.3021 129.754 23.6824 129.517 24.1103C129.279 24.5382 129.136 25.0136 129.089 25.5365V36.6373C129.089 36.8275 129.065 37.0177 128.97 37.2078C128.899 37.398 128.78 37.5406 128.638 37.6595C128.495 37.7545 128.353 37.8259 128.21 37.8496C128.091 37.8734 127.925 37.8972 127.759 37.8972H123.886C123.388 37.8972 123.055 37.7783 122.817 37.5406C122.604 37.3029 122.485 36.9701 122.485 36.5898V17.4784C122.485 17.2644 122.532 17.0743 122.627 16.8841C122.722 16.6939 122.865 16.5513 123.031 16.4562L122.984 16.5038Z" fill="#E8F2F3"/>
<path d="M147.215 8.89706C147.215 8.42165 147.31 8.08887 147.523 7.87493C147.737 7.68477 148.046 7.56592 148.474 7.56592H152.441C152.845 7.56592 153.154 7.661 153.415 7.87493C153.652 8.0651 153.771 8.42165 153.771 8.89706V12.2249C153.771 12.3675 153.747 12.5102 153.676 12.6766C153.605 12.843 153.534 12.9856 153.415 13.1282C153.296 13.2708 153.154 13.3897 152.987 13.4848C152.821 13.5798 152.631 13.6274 152.441 13.6274H148.474C147.642 13.6274 147.215 13.152 147.215 12.2012V8.89706ZM147.215 17.5257C147.215 17.1692 147.31 16.8364 147.523 16.5749C147.737 16.3134 148.046 16.1708 148.474 16.1708H152.393C152.536 16.1708 152.678 16.1946 152.845 16.2659C153.011 16.3372 153.154 16.4323 153.296 16.5511C153.439 16.67 153.557 16.8126 153.652 16.979C153.747 17.1454 153.795 17.3118 153.795 17.5257V36.5896C153.795 37.0175 153.676 37.3503 153.439 37.5642C153.201 37.7781 152.845 37.897 152.417 37.897H148.497C147.666 37.897 147.238 37.4691 147.238 36.5896V17.5257H147.215Z" fill="#E8F2F3"/>
<path d="M159.188 12.819C159.188 12.4625 159.306 12.201 159.544 12.0346C159.781 11.8682 160.114 11.7018 160.542 11.5354L164.414 10.1805C164.461 10.1805 164.533 10.1567 164.58 10.1567C164.628 10.1567 164.675 10.1567 164.723 10.1567C165.15 10.1567 165.435 10.2756 165.578 10.5371C165.72 10.7748 165.792 11.1076 165.792 11.5117L165.768 16.2182H168.096C168.452 16.2182 168.761 16.3371 168.975 16.551C169.213 16.7649 169.308 17.0977 169.308 17.5256V20.8297C169.308 21.3051 169.189 21.6616 168.975 21.8756C168.737 22.0895 168.452 22.2084 168.096 22.2084H165.768L165.792 36.637C165.792 37.0649 165.673 37.3977 165.412 37.6116C165.15 37.8255 164.818 37.9444 164.366 37.9444H160.494C159.615 37.9444 159.188 37.5165 159.188 36.637L159.164 22.2084H157.406C156.527 22.2084 156.099 21.7567 156.099 20.8297V17.478C156.099 16.6223 156.527 16.1707 157.406 16.1707H159.164L159.188 12.819Z" fill="#E8F2F3"/>
<path d="M172.016 17.8345C171.826 17.3829 171.826 16.9788 172.016 16.6697C172.182 16.337 172.586 16.1943 173.18 16.1943H177.408C177.693 16.1943 177.931 16.2894 178.121 16.4558C178.311 16.6222 178.43 16.8599 178.525 17.1214L183.371 30.8845L188.098 17.1214C188.217 16.7648 188.383 16.5034 188.573 16.3845C188.764 16.2656 189.025 16.1943 189.381 16.1943H193.776C194.085 16.1943 194.346 16.2419 194.536 16.3132C194.726 16.4083 194.845 16.5034 194.916 16.646C194.988 16.7886 195.011 16.955 194.988 17.1214C194.964 17.2878 194.916 17.4779 194.845 17.6443C194.417 18.714 193.942 19.8788 193.42 21.1624C192.897 22.4222 192.374 23.7533 191.828 25.132C191.282 26.5107 190.712 27.8894 190.141 29.3156C189.571 30.7418 189.025 32.1205 188.478 33.4992C187.932 34.8779 187.409 36.1853 186.911 37.4451C186.412 38.7049 185.96 39.8697 185.533 40.9156C185.129 41.9615 184.749 42.8885 184.44 43.6967C184.131 44.5049 183.894 45.0992 183.751 45.5508L183.799 45.4557C183.727 45.7648 183.585 46.0025 183.371 46.1926C183.157 46.3828 182.92 46.4779 182.611 46.4779H178.667C178.145 46.4779 177.812 46.3828 177.622 46.1689C177.432 45.9787 177.337 45.6697 177.337 45.2894C177.337 45.1467 177.361 45.0279 177.408 44.9566C177.456 44.8853 177.48 44.8377 177.503 44.7902L180.188 37.8254L172.016 17.8345Z" fill="#E8F2F3"/>
<path fill-rule="evenodd" clip-rule="evenodd" d="M51.8589 18.9996C41.6439 9.06356 36.5364 4.09554 36.5364 4.09554C33.4719 0.93407 30.4312 -0.397074 27.4379 0.102105C25.9176 0.36358 24.5397 1.148 23.447 2.21767C18.387 7.20947 0 24.966 0 24.966C6.62787 31.7168 17.4605 31.8356 24.2072 25.2037L26.2026 23.2545C31.3101 18.9283 35.8475 13.2709 51.8589 18.9996Z" fill="#159A75"/>
<path fill-rule="evenodd" clip-rule="evenodd" d="M3.06448 33.0003C13.2795 42.9364 18.387 47.9044 18.387 47.9044C21.4515 51.0659 24.4922 52.397 27.4854 51.8978C29.0058 51.6363 30.3836 50.8519 31.4764 49.7823C36.5601 44.8142 54.9471 27.0577 54.9471 27.0577C48.3193 20.3069 37.4866 20.1881 30.74 26.82L28.7445 28.7692C23.637 33.0954 19.0996 38.729 3.06448 33.0003Z" fill="#96D1AE"/>
</svg>
