<svg width="64" height="64" viewBox="0 0 64 64" fill="none" xmlns="http://www.w3.org/2000/svg">
<rect width="64" height="64" rx="10" fill="#13212F"/>
<g filter="url(#filter0_d_217_239)">
<path fill-rule="evenodd" clip-rule="evenodd" d="M30.1928 17.1918C29.4216 16.9361 28.5885 16.9361 27.8173 17.1918C27.4159 17.325 27.072 17.5361 26.7321 17.7888C26.4077 18.0299 26.0376 18.3472 25.5971 18.7247L25.5708 18.7472C24.8211 19.3899 24.6116 19.5542 24.401 19.6432C24.1314 19.7571 23.8371 19.8001 23.5461 19.7682C23.3189 19.7432 23.071 19.6458 22.1687 19.2447L18.4469 17.5906C18.1286 17.4492 17.7604 17.4783 17.4683 17.6681C17.1762 17.8579 17 18.1826 17 18.5309V37.2355C17 38.7339 17 39.9214 17.0782 40.8785C17.1582 41.8573 17.325 42.6854 17.7103 43.4416C18.3351 44.6679 19.3321 45.6649 20.5584 46.2897C21.3146 46.675 22.1427 46.8418 23.1215 46.9218C24.0786 47 25.2661 47 26.7645 47H42.7251C44.8088 47 46.4981 45.3108 46.4981 43.227V36.5996C46.4981 35.8668 46.4981 35.2551 46.4573 34.7553C46.4147 34.2341 46.3226 33.7448 46.0868 33.2821C45.7251 32.5721 45.1479 31.9949 44.438 31.6332C43.9752 31.3974 43.4859 31.3054 42.9647 31.2628C42.465 31.2219 41.8533 31.222 41.1204 31.222H41.01V18.5309C41.01 18.1826 40.8338 17.8579 40.5418 17.6681C40.2497 17.4783 39.8814 17.4492 39.5631 17.5906L35.8414 19.2447C34.939 19.6458 34.6912 19.7432 34.4639 19.7682C34.173 19.8001 33.8787 19.7571 33.6091 19.6432C33.3985 19.5542 33.189 19.3899 32.4392 18.7472L32.4129 18.7247C31.9725 18.3472 31.6023 18.0299 31.278 17.7888C30.938 17.5361 30.5942 17.325 30.1928 17.1918ZM44.4401 43.227C44.4401 44.1742 43.6722 44.942 42.7251 44.942C41.7779 44.942 41.01 44.1742 41.01 43.227V33.28H41.0786C41.864 33.28 42.3912 33.2808 42.7971 33.3139C43.191 33.3461 43.3794 33.4036 43.5036 33.4669C43.8263 33.6313 44.0887 33.8937 44.2531 34.2164C44.3164 34.3406 44.3739 34.529 44.4061 34.9229C44.4393 35.3289 44.4401 35.856 44.4401 36.6414V43.227ZM24.889 27.106C24.3207 27.106 23.86 27.5667 23.86 28.135C23.86 28.7033 24.3207 29.164 24.889 29.164H30.377C30.9453 29.164 31.406 28.7033 31.406 28.135C31.406 27.5667 30.9453 27.106 30.377 27.106H24.889ZM27.976 33.623C27.976 33.0547 28.4367 32.594 29.005 32.594H33.121C33.6893 32.594 34.15 33.0547 34.15 33.623C34.15 34.1913 33.6893 34.652 33.121 34.652H29.005C28.4367 34.652 27.976 34.1913 27.976 33.623ZM29.005 38.082C28.4367 38.082 27.976 38.5427 27.976 39.111C27.976 39.6793 28.4367 40.14 29.005 40.14H33.121C33.6893 40.14 34.15 39.6793 34.15 39.111C34.15 38.5427 33.6893 38.082 33.121 38.082H29.005ZM26.261 33.623C26.261 34.3807 25.6468 34.995 24.889 34.995C24.1313 34.995 23.517 34.3807 23.517 33.623C23.517 32.8652 24.1313 32.251 24.889 32.251C25.6468 32.251 26.261 32.8652 26.261 33.623ZM24.889 40.483C25.6468 40.483 26.261 39.8687 26.261 39.111C26.261 38.3532 25.6468 37.739 24.889 37.739C24.1313 37.739 23.517 38.3532 23.517 39.111C23.517 39.8687 24.1313 40.483 24.889 40.483Z" fill="white"/>
</g>
<defs>
<filter id="filter0_d_217_239" x="7" y="7" width="49.498" height="50" filterUnits="userSpaceOnUse" color-interpolation-filters="sRGB">
<feFlood flood-opacity="0" result="BackgroundImageFix"/>
<feColorMatrix in="SourceAlpha" type="matrix" values="0 0 0 0 0 0 0 0 0 0 0 0 0 0 0 0 0 0 127 0" result="hardAlpha"/>
<feOffset/>
<feGaussianBlur stdDeviation="5"/>
<feComposite in2="hardAlpha" operator="out"/>
<feColorMatrix type="matrix" values="0 0 0 0 1 0 0 0 0 1 0 0 0 0 1 0 0 0 0.4 0"/>
<feBlend mode="normal" in2="BackgroundImageFix" result="effect1_dropShadow_217_239"/>
<feBlend mode="normal" in="SourceGraphic" in2="effect1_dropShadow_217_239" result="shape"/>
</filter>
</defs>
</svg>
