<svg width="195" height="52" viewBox="0 0 195 52" fill="none" xmlns="http://www.w3.org/2000/svg">
<path d="M67.1576 13.2709C67.1814 13.057 67.2527 12.8906 67.3952 12.748C67.5377 12.6053 67.7278 12.534 67.9653 12.534H73.8805C74.3081 12.534 74.5694 12.748 74.6882 13.1758L79.3443 28.6979L84.0242 13.1758C84.1905 12.748 84.4756 12.534 84.9032 12.534H90.7471C90.9609 12.534 91.1272 12.6053 91.2935 12.748C91.4598 12.8906 91.5548 13.0808 91.5786 13.2947C91.9824 17.3119 92.3863 21.2816 92.7901 25.2275C93.194 29.1733 93.6216 33.1668 94.0017 37.1602V37.2553C94.0017 37.7069 93.7641 37.9209 93.2415 37.9209H88.4191C87.8964 37.9209 87.6114 37.6594 87.5876 37.1602L86.091 23.9438L82.2426 37.2553C82.2188 37.3741 82.1475 37.5168 82.005 37.6594C81.8625 37.8258 81.7199 37.8971 81.5774 37.8971H77.0875C76.945 37.8971 76.8025 37.8258 76.6599 37.6594C76.4937 37.493 76.4224 37.3741 76.4224 37.2315L72.5739 23.9676L71.0773 37.1364C71.0536 37.6356 70.7685 37.8971 70.2459 37.8971H65.3997C64.9008 37.8971 64.6633 37.6356 64.6633 37.1364L67.1576 13.2709Z" fill="black"/>
<path d="M117.995 37.6356C117.852 37.7545 117.686 37.8495 117.52 37.8733C117.354 37.8971 117.187 37.9209 117.045 37.9209H114.455C114.242 37.9209 114.075 37.8733 113.933 37.802C113.79 37.7307 113.648 37.6356 113.553 37.493C113.458 37.3741 113.363 37.2315 113.291 37.0651C113.22 36.8987 113.173 36.7323 113.125 36.5659L112.769 34.902C112.602 35.2586 112.317 35.6151 111.914 36.0192C111.51 36.4233 111.011 36.7799 110.441 37.1127C109.847 37.4454 109.182 37.7069 108.421 37.9209C107.661 38.1348 106.83 38.2536 105.927 38.2536C104.62 38.2536 103.48 37.9922 102.482 37.493C101.485 36.9938 100.63 36.3045 99.9406 35.4487C99.2517 34.593 98.7291 33.5709 98.3727 32.4061C98.0164 31.2414 97.8501 30.0053 97.8501 28.6979V17.5258C97.8501 17.0979 97.9451 16.7652 98.1352 16.5512C98.3252 16.3373 98.634 16.2184 99.0379 16.2184H102.981C103.48 16.2184 103.813 16.2898 103.979 16.4561C104.169 16.6225 104.264 16.9553 104.264 17.4307V28.5791C104.264 29.0782 104.359 29.5299 104.549 29.9815C104.739 30.4094 105.001 30.8135 105.309 31.1463C105.618 31.4791 105.998 31.7405 106.426 31.9307C106.854 32.1209 107.305 32.2159 107.78 32.2159C108.184 32.2159 108.635 32.1446 109.11 32.002C109.585 31.8594 110.037 31.6455 110.441 31.3602C110.845 31.075 111.201 30.6946 111.462 30.243C111.747 29.7914 111.866 29.2446 111.866 28.6028V17.4783C111.866 17.2881 111.914 17.0979 111.985 16.884C112.056 16.6939 112.175 16.5512 112.317 16.4324C112.46 16.3373 112.602 16.2898 112.745 16.2422C112.864 16.2184 113.03 16.1947 113.196 16.1947H117.045C117.544 16.1947 117.876 16.3135 118.114 16.5512C118.328 16.7889 118.446 17.1217 118.446 17.502V36.6372C118.446 36.8512 118.399 37.0413 118.304 37.2315C118.209 37.4217 118.066 37.5643 117.9 37.6594L117.995 37.6356Z" fill="black"/>
<path d="M122.984 16.5037C123.126 16.3848 123.293 16.2898 123.459 16.266C123.625 16.2422 123.768 16.2184 123.934 16.2184H126.523C126.737 16.2184 126.903 16.266 127.046 16.3373C127.189 16.4086 127.331 16.5037 127.426 16.6463C127.521 16.7652 127.616 16.9078 127.664 17.0742C127.735 17.2406 127.782 17.407 127.854 17.5734L128.21 19.0709C128.376 18.7143 128.661 18.3578 129.041 17.9775C129.422 17.5971 129.897 17.2643 130.467 16.9553C131.037 16.6463 131.678 16.3848 132.415 16.1947C133.151 16.0045 133.983 15.8857 134.885 15.8857C136.192 15.8857 137.332 16.1234 138.354 16.6225C139.375 17.1217 140.23 17.8111 140.943 18.6668C141.656 19.5225 142.202 20.5447 142.559 21.6856C142.939 22.8504 143.105 24.0627 143.105 25.3938V36.5897C143.105 37.0176 143.01 37.3504 142.82 37.5643C142.63 37.7782 142.345 37.8971 141.917 37.8971H137.974C137.475 37.8971 137.142 37.8258 136.976 37.6594C136.786 37.493 136.715 37.1602 136.715 36.6848V25.5602C136.715 25.0611 136.596 24.6094 136.382 24.1578C136.168 23.7299 135.859 23.3258 135.503 22.993C135.147 22.6602 134.719 22.3988 134.268 22.2086C133.816 22.0184 133.341 21.9234 132.866 21.9234C132.462 21.9234 132.035 22.0184 131.607 22.2086C131.179 22.3988 130.799 22.6365 130.419 22.9693C130.063 23.302 129.754 23.6824 129.517 24.1102C129.279 24.5381 129.136 25.0135 129.089 25.5365V36.6373C129.089 36.8274 129.065 37.0176 128.97 37.2077C128.899 37.3979 128.78 37.5405 128.638 37.6594C128.495 37.7545 128.353 37.8258 128.21 37.8495C128.091 37.8733 127.925 37.8971 127.759 37.8971H123.886C123.388 37.8971 123.055 37.7782 122.817 37.5405C122.604 37.3028 122.485 36.97 122.485 36.5897V17.4783C122.485 17.2643 122.532 17.0742 122.627 16.884C122.722 16.6939 122.865 16.5512 123.031 16.4561L122.984 16.5037Z" fill="black"/>
<path d="M147.215 8.89716C147.215 8.42175 147.31 8.08897 147.523 7.87503C147.737 7.68487 148.046 7.56602 148.474 7.56602H152.441C152.845 7.56602 153.154 7.6611 153.415 7.87503C153.652 8.0652 153.771 8.42175 153.771 8.89716V12.225C153.771 12.3676 153.747 12.5103 153.676 12.6767C153.605 12.8431 153.534 12.9857 153.415 13.1283C153.296 13.2709 153.154 13.3898 152.987 13.4849C152.821 13.5799 152.631 13.6275 152.441 13.6275H148.474C147.642 13.6275 147.215 13.1521 147.215 12.2013V8.89716ZM147.215 17.5258C147.215 17.1693 147.31 16.8365 147.523 16.575C147.737 16.3135 148.046 16.1709 148.474 16.1709H152.393C152.536 16.1709 152.678 16.1947 152.845 16.266C153.011 16.3373 153.154 16.4324 153.296 16.5512C153.439 16.6701 153.557 16.8127 153.652 16.9791C153.747 17.1455 153.795 17.3119 153.795 17.5258V36.5897C153.795 37.0176 153.676 37.3504 153.439 37.5643C153.201 37.7782 152.845 37.8971 152.417 37.8971H148.497C147.666 37.8971 147.238 37.4692 147.238 36.5897V17.5258H147.215Z" fill="black"/>
<path d="M159.188 12.8193C159.188 12.4627 159.306 12.2012 159.544 12.0349C159.781 11.8685 160.114 11.7021 160.542 11.5357L164.414 10.1808C164.461 10.1808 164.533 10.157 164.58 10.157C164.628 10.157 164.675 10.157 164.723 10.157C165.15 10.157 165.435 10.2758 165.578 10.5373C165.72 10.775 165.792 11.1078 165.792 11.5119L165.768 16.2185H168.096C168.452 16.2185 168.761 16.3373 168.975 16.5512C169.213 16.7652 169.308 17.098 169.308 17.5258V20.8299C169.308 21.3053 169.189 21.6619 168.975 21.8758C168.737 22.0898 168.452 22.2086 168.096 22.2086H165.768L165.792 36.6373C165.792 37.0651 165.673 37.3979 165.412 37.6118C165.15 37.8258 164.818 37.9446 164.366 37.9446H160.494C159.615 37.9446 159.188 37.5168 159.188 36.6373L159.164 22.2086H157.406C156.527 22.2086 156.099 21.757 156.099 20.8299V17.4783C156.099 16.6226 156.527 16.1709 157.406 16.1709H159.164L159.188 12.8193Z" fill="black"/>
<path d="M172.016 17.8348C171.826 17.3832 171.826 16.9791 172.016 16.6701C172.182 16.3373 172.586 16.1947 173.18 16.1947H177.408C177.693 16.1947 177.931 16.2898 178.121 16.4561C178.311 16.6225 178.43 16.8602 178.525 17.1217L183.371 30.8848L188.098 17.1217C188.217 16.7652 188.383 16.5037 188.573 16.3848C188.764 16.266 189.025 16.1947 189.381 16.1947H193.776C194.085 16.1947 194.346 16.2422 194.536 16.3135C194.726 16.4086 194.845 16.5037 194.916 16.6463C194.988 16.7889 195.011 16.9553 194.988 17.1217C194.964 17.2881 194.916 17.4783 194.845 17.6447C194.417 18.7143 193.942 19.8791 193.42 21.1627C192.897 22.4225 192.374 23.7537 191.828 25.1324C191.282 26.511 190.712 27.8897 190.141 29.316C189.571 30.7422 189.025 32.1209 188.478 33.4995C187.932 34.8782 187.409 36.1856 186.911 37.4454C186.412 38.7053 185.96 39.87 185.533 40.9159C185.129 41.9618 184.749 42.8889 184.44 43.6971C184.131 44.5053 183.894 45.0995 183.751 45.5512L183.799 45.4561C183.727 45.7651 183.585 46.0028 183.371 46.193C183.157 46.3831 182.92 46.4782 182.611 46.4782H178.667C178.145 46.4782 177.812 46.3831 177.622 46.1692C177.432 45.979 177.337 45.67 177.337 45.2897C177.337 45.1471 177.361 45.0282 177.408 44.9569C177.456 44.8856 177.48 44.838 177.503 44.7905L180.188 37.8258L172.016 17.8348Z" fill="black"/>
<path fill-rule="evenodd" clip-rule="evenodd" d="M51.8589 18.9996C41.6439 9.06356 36.5364 4.09554 36.5364 4.09554C33.4719 0.93407 30.4312 -0.397074 27.4379 0.102105C25.9176 0.36358 24.5397 1.148 23.447 2.21767C18.387 7.20947 0 24.966 0 24.966C6.62787 31.7168 17.4605 31.8356 24.2072 25.2037L26.2026 23.2545C31.3101 18.9283 35.8475 13.2709 51.8589 18.9996Z" fill="#159A75"/>
<path fill-rule="evenodd" clip-rule="evenodd" d="M3.06448 33.0004C13.2795 42.9364 18.387 47.9045 18.387 47.9045C21.4515 51.0659 24.4922 52.3971 27.4854 51.8979C29.0058 51.6364 30.3836 50.852 31.4764 49.7823C36.5601 44.8143 54.9471 27.0578 54.9471 27.0578C48.3193 20.307 37.4866 20.1881 30.74 26.8201L28.7445 28.7693C23.637 33.0955 19.0996 38.7291 3.06448 33.0004Z" fill="#96D1AE"/>
</svg>
